<svg width="1920" height="650" viewBox="0 0 1920 650" fill="none" xmlns="http://www.w3.org/2000/svg">
<g clip-path="url(#clip0_3_735)">
<rect width="1920" height="650" fill="white"/>
<rect opacity="0.68" width="1920" height="650" fill="#F0F2FB"/>
<g opacity="0.6" clip-path="url(#clip1_3_735)">
<g opacity="0.25">
<path d="M812.975 38.4347L807.501 46.3511L795.334 47.6542L804.154 53.8115L802.073 62.5423L812.975 58.4375L823.83 62.5423L821.75 53.8115L830.57 47.6542L818.402 46.3511L812.975 38.4347Z" fill="#E6E8F0"/>
<path d="M1525.4 457.094L1519.97 465.043L1507.8 466.313L1516.58 472.471L1514.54 481.201L1525.4 477.097L1536.3 481.201L1534.22 472.471L1543.04 466.313L1530.87 465.043L1525.4 457.094Z" fill="#E6E8F0"/>
<path d="M340.651 428.131L335.223 436.08L323.055 437.351L331.83 443.541L329.75 452.239L340.651 448.134L351.552 452.239L349.471 443.541L358.246 437.351L346.079 436.08L340.651 428.131Z" fill="#E6E8F0"/>
<path d="M1140.28 278.795L1136.93 283.714L1129.43 284.496L1134.85 288.34L1133.59 293.715L1140.28 291.174L1147.02 293.715L1145.75 288.34L1151.18 284.496L1143.67 283.714L1140.28 278.795Z" fill="#E6E8F0"/>
<path d="M1590.03 392.817L1586.69 397.736L1579.18 398.518L1584.61 402.33L1583.29 407.738L1590.03 405.164L1596.77 407.738L1595.51 402.33L1600.94 398.518L1593.43 397.736L1590.03 392.817Z" fill="#E6E8F0"/>
<path d="M587.216 483.417L583.869 488.336L576.361 489.118L581.788 492.929L580.477 498.337L587.216 495.796L593.956 498.337L592.69 492.929L598.118 489.118L590.609 488.336L587.216 483.417Z" fill="#E6E8F0"/>
<path d="M10.9012 27.4238L7.55394 32.3431L0 33.125L5.4732 36.9692L4.16146 42.3445L10.9012 39.8034L17.6409 42.3445L16.3292 36.9692L21.8024 33.125L14.2484 32.3431L10.9012 27.4238Z" fill="#E6E8F0"/>
<path d="M74.6347 209.175L72.554 212.205L67.895 212.694L71.2874 215.039L70.4732 218.395L74.6347 216.799L78.7961 218.395L78.0272 215.039L81.3744 212.694L76.7154 212.205L74.6347 209.175Z" fill="#E6E8F0"/>
<path d="M1205.73 134.214L1203.65 137.243L1198.99 137.732L1202.34 140.11L1201.57 143.433L1205.73 141.87L1209.9 143.433L1209.08 140.11L1212.43 137.732L1207.82 137.243L1205.73 134.214Z" fill="#E6E8F0"/>
<path d="M587.488 227.354L585.407 230.384L580.748 230.873L584.141 233.218L583.326 236.574L587.488 234.977L591.649 236.574L590.88 233.218L594.227 230.873L589.568 230.384L587.488 227.354Z" fill="#E6E8F0"/>
<path d="M1666.57 153.76L1664.49 156.79L1659.83 157.279L1663.18 159.624L1662.41 162.98L1666.57 161.384L1670.73 162.98L1669.92 159.624L1673.31 157.279L1668.65 156.79L1666.57 153.76Z" fill="#E6E8F0"/>
<path d="M1465.06 19.9635L1461.71 24.8828L1454.15 25.6646L1459.63 29.5088L1458.32 34.8842L1465.06 32.3431L1471.79 34.8842L1470.48 29.5088L1475.96 25.6646L1468.45 24.8828L1465.06 19.9635Z" fill="#E6E8F0"/>
<path d="M1908.79 282.9L1905.45 287.819L1897.89 288.601L1903.36 292.412L1902.05 297.82L1908.79 295.279L1915.53 297.82L1914.27 292.412L1919.69 288.601L1912.19 287.819L1908.79 282.9Z" fill="#E6E8F0"/>
<path d="M528.82 174.708L525.473 179.628L517.964 180.41L523.392 184.221L522.126 189.629L528.82 187.088L535.56 189.629L534.294 184.221L539.722 180.41L532.213 179.628L528.82 174.708Z" fill="#E6E8F0"/>
<path d="M337.123 109.748C328.694 120.343 316.732 129.258 302.317 135.687C287.902 142.115 271.489 145.855 254.564 146.566C237.638 147.278 220.733 144.94 205.377 139.763C190.021 134.587 176.699 126.735 166.616 116.918C156.533 107.101 150.006 95.6288 147.627 83.5386C145.247 71.4483 147.09 59.1216 152.988 47.6731C158.886 36.2246 168.653 26.0156 181.406 17.9693C194.159 9.92293 209.496 4.29312 226.03 1.58899C213.157 5.86283 201.767 12.1492 192.691 19.991C183.614 27.8328 177.078 37.0329 173.557 46.9224C170.037 56.8119 169.621 67.1421 172.339 77.162C175.057 87.1818 180.842 96.6394 189.272 104.847C197.703 113.055 208.567 119.806 221.074 124.61C233.582 129.414 247.419 132.151 261.579 132.62C275.74 133.089 289.867 131.28 302.935 127.324C316.002 123.367 327.681 117.363 337.123 109.748Z" fill="#E6E8F0"/>
<path d="M185.501 216.929V250.55C185.501 251.305 186.352 251.918 187.401 251.918H192.874C193.923 251.918 194.774 251.305 194.774 250.55V216.929C194.774 216.174 193.923 215.561 192.874 215.561H187.401C186.352 215.561 185.501 216.174 185.501 216.929Z" fill="#DADCE9"/>
<path d="M128.281 341.051V363.855H252.039V341.051H128.281ZM128.281 397.475V420.28H252.039V397.475H128.281Z" fill="#B2B7D1"/>
<path d="M128.281 420.248V1091.35H252.039V420.248H128.281ZM206.625 520.946H173.695V469.18C173.695 466.035 175.43 463.018 178.518 460.794C181.605 458.571 185.793 457.321 190.16 457.321C194.527 457.321 198.715 458.571 201.802 460.794C204.89 463.018 206.625 466.035 206.625 469.18V520.946Z" fill="#B2B7D1"/>
<path d="M252.039 363.823H128.281V397.476H252.039V363.823Z" fill="#B2B7D1"/>
<path d="M277.279 408.813C277.279 410.296 276.873 411.764 276.083 413.134C275.294 414.504 274.137 415.748 272.679 416.795C271.221 417.842 269.49 418.672 267.586 419.236C265.682 419.801 263.642 420.089 261.583 420.085H118.511C114.36 420.085 110.379 418.897 107.444 416.783C104.509 414.669 102.86 411.802 102.86 408.813C102.854 407.328 103.254 405.858 104.038 404.484C104.821 403.111 105.972 401.863 107.425 400.81C108.879 399.757 110.606 398.921 112.508 398.349C114.41 397.777 116.45 397.48 118.511 397.476H261.583C263.648 397.476 265.693 397.769 267.6 398.339C269.507 398.91 271.24 399.745 272.698 400.798C274.156 401.852 275.311 403.102 276.097 404.477C276.883 405.852 277.285 407.326 277.279 408.813Z" fill="#DADCE9"/>
<path d="M277.279 598.938V599.101C277.279 602.099 275.625 604.974 272.682 607.094C269.738 609.214 265.746 610.405 261.583 610.405H118.511C114.356 610.396 110.375 609.202 107.441 607.083C104.508 604.964 102.86 602.093 102.86 599.101V598.938C102.854 597.453 103.254 595.982 104.038 594.609C104.821 593.236 105.972 591.987 107.425 590.935C108.879 589.882 110.606 589.046 112.508 588.474C114.41 587.902 116.45 587.605 118.511 587.601H261.583C263.648 587.601 265.693 587.894 267.6 588.464C269.507 589.034 271.24 589.87 272.698 590.923C274.156 591.976 275.311 593.226 276.097 594.602C276.883 595.977 277.285 597.45 277.279 598.938Z" fill="#DADCE9"/>
<path d="M277.279 352.388C277.309 353.886 276.925 355.373 276.15 356.764C275.374 358.154 274.223 359.42 272.763 360.487C271.302 361.554 269.562 362.401 267.642 362.979C265.723 363.557 263.664 363.855 261.583 363.855H118.511C116.452 363.855 114.413 363.562 112.511 362.994C110.609 362.425 108.882 361.592 107.428 360.542C105.974 359.492 104.822 358.245 104.039 356.874C103.255 355.503 102.854 354.034 102.86 352.551C102.824 351.052 103.202 349.564 103.972 348.172C104.742 346.78 105.888 345.512 107.344 344.442C108.801 343.372 110.538 342.521 112.455 341.939C114.372 341.357 116.43 341.055 118.511 341.051H261.583C263.648 341.051 265.693 341.344 267.6 341.914C269.507 342.484 271.24 343.32 272.698 344.373C274.156 345.426 275.311 346.676 276.097 348.052C276.883 349.427 277.285 350.9 277.279 352.388Z" fill="#DADCE9"/>
<path d="M273.479 312.676C273.479 334.666 253.758 341.051 253.758 341.051H126.517C126.517 341.051 106.841 334.536 106.841 312.676C106.841 289.155 134.749 278.697 163.156 263.288C175.533 256.689 184.966 247.631 190.296 237.225C195.604 247.639 205.041 256.701 217.436 263.288C245.525 278.697 273.479 289.155 273.479 312.676Z" fill="#DADCE9"/>
<path opacity="0.05" d="M221.416 341.051H126.426C126.426 341.051 106.75 334.535 106.75 312.676C106.75 290.816 131.04 280.098 157.366 266.317C136.152 279.511 123.396 301.436 135.156 318.246C146.917 335.057 176.726 341.051 221.416 341.051Z" fill="black"/>
<path d="M192.557 218.167C192.557 218.628 192.306 219.071 191.858 219.4C191.41 219.729 190.8 219.918 190.16 219.926C189.675 219.933 189.198 219.835 188.791 219.646C188.383 219.456 188.063 219.184 187.871 218.863C187.679 218.542 187.625 218.188 187.714 217.844C187.803 217.501 188.032 217.184 188.372 216.935C188.711 216.686 189.146 216.515 189.621 216.444C190.096 216.374 190.59 216.407 191.039 216.539C191.488 216.671 191.872 216.896 192.142 217.186C192.413 217.476 192.557 217.818 192.557 218.167Z" fill="#B2B7D1"/>
<path d="M1723.79 216.962V250.582C1723.79 251.338 1724.64 251.951 1725.69 251.951H1731.16C1732.21 251.951 1733.06 251.338 1733.06 250.582V216.962C1733.06 216.206 1732.21 215.594 1731.16 215.594H1725.69C1724.64 215.594 1723.79 216.206 1723.79 216.962Z" fill="#DADCE9"/>
<path d="M1666.57 341.051V363.855H1790.33V341.051H1666.57ZM1666.57 397.475V420.28H1790.33V397.475H1666.57Z" fill="#B2B7D1"/>
<path d="M1666.57 420.248V1091.35H1790.33V420.248H1666.57ZM1744.91 520.946H1711.98V469.18C1711.98 467.622 1712.41 466.08 1713.24 464.642C1714.06 463.203 1715.28 461.896 1716.81 460.794C1718.33 459.693 1720.15 458.82 1722.15 458.224C1724.14 457.628 1726.29 457.321 1728.45 457.321C1730.61 457.321 1732.75 457.628 1734.75 458.224C1736.75 458.82 1738.56 459.693 1740.09 460.794C1741.62 461.896 1742.83 463.203 1743.66 464.642C1744.49 466.08 1744.91 467.622 1744.91 469.18V520.946Z" fill="#B2B7D1"/>
<path d="M1790.33 363.823H1666.57V397.476H1790.33V363.823Z" fill="#B2B7D1"/>
<path d="M1815.57 408.813C1815.55 411.805 1813.9 414.672 1810.95 416.785C1808.01 418.898 1804.03 420.085 1799.87 420.085H1656.98C1652.83 420.085 1648.85 418.897 1645.91 416.783C1642.98 414.669 1641.33 411.802 1641.33 408.813C1641.32 407.328 1641.72 405.858 1642.51 404.484C1643.29 403.111 1644.44 401.863 1645.89 400.81C1647.35 399.757 1649.07 398.921 1650.98 398.349C1652.88 397.777 1654.92 397.48 1656.98 397.476H1799.87C1801.94 397.476 1803.98 397.769 1805.89 398.339C1807.8 398.91 1809.53 399.745 1810.99 400.798C1812.44 401.852 1813.6 403.102 1814.38 404.477C1815.17 405.852 1815.57 407.326 1815.57 408.813Z" fill="#DADCE9"/>
<path d="M1815.57 598.938V599.101C1815.55 602.096 1813.9 604.966 1810.96 607.085C1808.02 609.203 1804.03 610.397 1799.87 610.405H1656.98C1652.82 610.396 1648.84 609.202 1645.91 607.083C1642.98 604.964 1641.33 602.093 1641.33 599.101V598.938C1641.32 597.453 1641.72 595.982 1642.51 594.609C1643.29 593.236 1644.44 591.987 1645.89 590.935C1647.35 589.882 1649.07 589.046 1650.98 588.474C1652.88 587.902 1654.92 587.605 1656.98 587.601H1799.87C1804.04 587.609 1808.03 588.808 1810.97 590.933C1813.91 593.058 1815.57 595.937 1815.57 598.938Z" fill="#DADCE9"/>
<path d="M1815.57 352.388C1815.57 355.386 1813.91 358.261 1810.97 360.381C1808.03 362.501 1804.03 363.692 1799.87 363.692H1656.98C1654.92 363.692 1652.88 363.4 1650.98 362.831C1649.08 362.263 1647.35 361.429 1645.9 360.379C1644.44 359.329 1643.29 358.083 1642.51 356.711C1641.72 355.34 1641.32 353.871 1641.33 352.388C1641.32 350.903 1641.72 349.432 1642.51 348.059C1643.29 346.686 1644.44 345.437 1645.89 344.385C1647.35 343.332 1649.07 342.496 1650.98 341.923C1652.88 341.351 1654.92 341.055 1656.98 341.051H1799.87C1801.94 341.051 1803.98 341.344 1805.89 341.914C1807.8 342.484 1809.53 343.32 1810.99 344.373C1812.44 345.426 1813.6 346.676 1814.38 348.052C1815.17 349.427 1815.57 350.9 1815.57 352.388Z" fill="#DADCE9"/>
<path d="M1811.77 312.676C1811.77 334.536 1792.14 341.051 1792.14 341.051H1664.8C1664.8 341.051 1645.13 334.536 1645.13 312.676C1645.13 289.155 1673.04 278.697 1701.44 263.288C1713.82 256.689 1723.25 247.631 1728.58 237.225C1733.9 247.637 1743.33 256.699 1755.72 263.288C1783.81 278.697 1811.77 289.155 1811.77 312.676Z" fill="#DADCE9"/>
<path opacity="0.05" d="M1759.7 341.051H1664.71C1664.71 341.051 1645.04 334.535 1645.04 312.676C1645.04 290.816 1669.33 280.098 1695.65 266.317C1674.44 279.511 1661.64 301.436 1673.44 318.246C1685.25 335.057 1715.24 341.051 1759.7 341.051Z" fill="black"/>
<path d="M1730.85 218.167C1730.85 218.518 1730.72 218.862 1730.45 219.157C1730.19 219.451 1729.81 219.681 1729.36 219.818C1728.91 219.956 1728.42 219.993 1727.94 219.926C1727.46 219.86 1727.02 219.691 1726.68 219.443C1726.33 219.195 1726.1 218.879 1726.01 218.535C1725.91 218.19 1725.96 217.834 1726.15 217.511C1726.35 217.189 1726.67 216.914 1727.07 216.723C1727.48 216.533 1727.96 216.434 1728.45 216.44C1729.08 216.449 1729.68 216.633 1730.13 216.955C1730.58 217.277 1730.83 217.712 1730.85 218.167Z" fill="#B2B7D1"/>
<path d="M716.357 730.943C716.357 795.057 658.82 813.757 658.82 813.757H287.456C287.456 813.757 229.965 795.057 229.965 730.943C229.965 662.302 311.385 631.711 394.342 586.754C430.315 567.527 457.716 541.158 473.183 510.88C488.623 541.161 516.01 567.532 551.98 586.754C634.847 631.711 716.357 662.302 716.357 730.943Z" fill="#DADCE9"/>
<path opacity="0.05" d="M564.464 813.756H287.502C287.502 813.756 229.965 795.057 229.965 730.943C229.965 666.83 300.891 635.979 377.742 595.582C315.772 634.252 278.545 698.137 313.013 747.2C347.481 796.262 433.966 813.756 564.464 813.756Z" fill="black"/>
<path d="M511.27 428.099V428.262C510.009 433.412 506.655 438.176 501.631 441.952C496.608 445.728 490.141 448.346 483.051 449.473C475.961 450.6 468.566 450.187 461.802 448.285C455.038 446.383 449.21 443.078 445.056 438.789C440.902 434.5 438.608 429.42 438.466 424.191C438.324 418.963 440.339 413.821 444.257 409.418C448.175 405.015 453.819 401.549 460.474 399.457C467.129 397.366 474.496 396.744 481.642 397.671C478.569 397.697 475.518 398.06 472.596 398.746C467.577 399.898 463.046 401.948 459.428 404.705C455.81 407.463 453.223 410.836 451.909 414.51C450.595 418.183 450.597 422.037 451.915 425.71C453.233 429.383 455.824 432.755 459.445 435.51C463.066 438.265 467.599 440.313 472.619 441.462C477.639 442.611 482.982 442.824 488.147 442.08C493.312 441.336 498.131 439.66 502.151 437.209C506.172 434.758 509.262 431.612 511.134 428.066L511.27 428.099Z" fill="#B2B7D1"/>
<path d="M484.492 502.735C484.492 504.346 483.829 505.921 482.586 507.26C481.343 508.599 479.577 509.643 477.511 510.26C475.445 510.876 473.171 511.037 470.977 510.723C468.784 510.409 466.769 509.633 465.187 508.494C463.606 507.355 462.529 505.904 462.093 504.324C461.656 502.744 461.88 501.107 462.736 499.618C463.592 498.13 465.041 496.858 466.901 495.963C468.761 495.068 470.947 494.591 473.184 494.591C476.183 494.591 479.059 495.449 481.18 496.976C483.3 498.504 484.492 500.575 484.492 502.735Z" fill="#B2B7D1"/>
<path d="M480.376 455.074C480.376 456.072 479.964 457.049 479.194 457.879C478.424 458.71 477.329 459.357 476.047 459.739C474.766 460.121 473.357 460.221 471.997 460.026C470.637 459.831 469.387 459.351 468.407 458.644C467.426 457.938 466.759 457.038 466.488 456.059C466.217 455.079 466.356 454.064 466.887 453.141C467.418 452.219 468.316 451.43 469.469 450.875C470.622 450.32 471.978 450.024 473.364 450.024C474.285 450.024 475.197 450.155 476.047 450.409C476.898 450.662 477.671 451.034 478.322 451.503C478.973 451.972 479.49 452.529 479.842 453.141C480.194 453.754 480.376 454.411 480.376 455.074Z" fill="#B2B7D1"/>
<path d="M473.183 494.59C456.492 477.389 473.183 460.188 473.183 460.188C473.183 460.188 489.875 477.389 473.183 494.59Z" fill="#B2B7D1"/>
<path d="M1688.6 730.943C1688.6 795.057 1631.06 813.757 1631.06 813.757H1259.7C1259.7 813.757 1202.21 795.057 1202.21 730.943C1202.21 662.302 1283.63 631.711 1366.58 586.754C1402.56 567.527 1429.96 541.158 1445.42 510.88C1460.86 541.155 1488.23 567.525 1524.18 586.754C1607.09 631.711 1688.6 662.302 1688.6 730.943Z" fill="#DADCE9"/>
<path opacity="0.05" d="M1536.7 813.756H1259.74C1259.74 813.756 1202.21 795.057 1202.21 730.943C1202.21 666.83 1273.13 635.979 1349.98 595.582C1288.01 634.154 1250.79 698.137 1285.12 747.2C1319.45 796.262 1406.21 813.756 1536.7 813.756Z" fill="black"/>
<path d="M1483.51 428.099V428.262C1482.25 433.412 1478.9 438.176 1473.87 441.952C1468.85 445.728 1462.38 448.346 1455.29 449.473C1448.2 450.6 1440.81 450.187 1434.04 448.285C1427.28 446.383 1421.45 443.078 1417.3 438.789C1413.14 434.5 1410.85 429.42 1410.71 424.191C1410.56 418.963 1412.58 413.821 1416.5 409.418C1420.42 405.015 1426.06 401.549 1432.71 399.457C1439.37 397.366 1446.74 396.744 1453.88 397.671C1448.24 397.751 1442.73 398.935 1437.95 401.096C1433.17 403.258 1429.29 406.315 1426.74 409.941C1424.19 413.567 1423.05 417.625 1423.45 421.68C1423.86 425.735 1425.78 429.635 1429.03 432.962C1432.27 436.289 1436.71 438.918 1441.87 440.567C1447.03 442.216 1452.72 442.823 1458.32 442.324C1463.92 441.824 1469.23 440.236 1473.68 437.73C1478.12 435.225 1481.54 431.895 1483.56 428.099H1483.51Z" fill="#B2B7D1"/>
<path d="M1456.73 502.735C1456.73 504.346 1456.07 505.921 1454.83 507.26C1453.58 508.599 1451.82 509.643 1449.75 510.26C1447.69 510.876 1445.41 511.037 1443.22 510.723C1441.02 510.409 1439.01 509.633 1437.43 508.494C1435.85 507.355 1434.77 505.904 1434.33 504.324C1433.9 502.744 1434.12 501.107 1434.98 499.618C1435.83 498.13 1437.28 496.858 1439.14 495.963C1441 495.068 1443.19 494.591 1445.42 494.591C1448.42 494.591 1451.3 495.449 1453.42 496.976C1455.54 498.504 1456.73 500.575 1456.73 502.735Z" fill="#B2B7D1"/>
<path d="M1452.44 455.074C1452.44 456.072 1452.02 457.049 1451.25 457.879C1450.48 458.71 1449.39 459.357 1448.11 459.739C1446.83 460.121 1445.42 460.221 1444.06 460.026C1442.7 459.831 1441.45 459.351 1440.47 458.644C1439.49 457.938 1438.82 457.038 1438.55 456.059C1438.28 455.079 1438.42 454.064 1438.95 453.141C1439.48 452.219 1440.38 451.43 1441.53 450.875C1442.68 450.32 1444.04 450.024 1445.42 450.024C1447.28 450.024 1449.07 450.556 1450.38 451.503C1451.7 452.45 1452.44 453.735 1452.44 455.074Z" fill="#B2B7D1"/>
<path d="M1445.42 494.59C1428.73 477.389 1445.42 460.188 1445.42 460.188C1445.42 460.188 1461.93 477.389 1445.42 494.59Z" fill="#B2B7D1"/>
<path d="M1285.12 507.883C1285.12 593.823 1208.22 618.843 1208.22 618.843H710.657C710.657 618.843 633.761 593.823 633.761 507.883C633.761 415.948 742.909 374.965 853.956 314.729C935.375 270.553 959.575 213.085 959.575 213.085C959.575 213.085 983.684 270.553 1065.1 314.729C1175.88 374.965 1285.12 415.981 1285.12 507.883Z" fill="#DADCE9"/>
<path opacity="0.05" d="M1081.57 618.843H710.657C710.657 618.843 633.761 593.823 633.761 507.915C633.761 422.007 728.751 380.698 831.701 326.586C748.698 378.255 698.806 463.967 744.808 529.71C790.811 595.452 906.788 618.843 1081.57 618.843Z" fill="black"/>
<path d="M1010.37 102.19C1010.37 102.19 1010.37 102.19 1010.37 102.418C1008.66 109.3 1004.16 115.662 997.431 120.701C990.702 125.739 982.049 129.228 972.567 130.724C963.085 132.221 953.2 131.659 944.162 129.109C935.123 126.56 927.338 122.137 921.79 116.4C916.241 110.664 913.18 103.871 912.992 96.8814C912.804 89.8915 915.498 83.0185 920.733 77.1315C925.969 71.2445 933.511 66.6079 942.405 63.8081C951.3 61.0083 961.147 60.171 970.703 61.4021C963.142 61.5153 955.766 63.1069 949.365 66.0067C942.964 68.9065 937.777 73.0053 934.361 77.8645C930.946 82.7237 929.428 88.1604 929.972 93.5928C930.516 99.0252 933.101 104.249 937.449 108.705C941.798 113.161 947.747 116.681 954.66 118.89C961.573 121.098 969.189 121.911 976.694 121.242C984.199 120.572 991.31 118.446 997.266 115.09C1003.22 111.734 1007.8 107.275 1010.51 102.19H1010.37Z" fill="#B2B7D1"/>
<path d="M974.412 202.171C974.412 204.331 973.522 206.442 971.855 208.238C970.188 210.033 967.818 211.432 965.047 212.257C962.275 213.082 959.226 213.296 956.286 212.873C953.345 212.449 950.645 211.406 948.528 209.877C946.41 208.347 944.971 206.399 944.391 204.28C943.812 202.161 944.118 199.966 945.272 197.972C946.426 195.979 948.375 194.276 950.873 193.081C953.371 191.886 956.305 191.251 959.304 191.258C961.292 191.258 963.26 191.54 965.096 192.089C966.932 192.638 968.599 193.442 970.003 194.456C971.406 195.47 972.518 196.673 973.275 197.997C974.031 199.321 974.418 200.74 974.412 202.171Z" fill="#B2B7D1"/>
<path d="M968.894 138.384C968.894 139.724 968.342 141.034 967.308 142.149C966.274 143.263 964.805 144.132 963.086 144.644C961.366 145.157 959.475 145.291 957.65 145.03C955.824 144.769 954.148 144.123 952.832 143.175C951.516 142.228 950.62 141.02 950.257 139.706C949.894 138.392 950.081 137.029 950.793 135.791C951.505 134.553 952.711 133.494 954.258 132.75C955.805 132.005 957.624 131.608 959.485 131.608C961.98 131.608 964.373 132.322 966.138 133.593C967.902 134.863 968.894 136.587 968.894 138.384Z" fill="#B2B7D1"/>
<path d="M959.304 191.193C936.959 168.16 959.304 145.095 959.304 145.095C959.304 145.095 981.649 168.388 959.304 191.193Z" fill="#B2B7D1"/>
<path d="M1252.91 618.842H665.651C661.853 618.842 658.775 621.059 658.775 623.794V637.9C658.775 640.635 661.853 642.852 665.651 642.852H1252.91C1256.71 642.852 1259.79 640.635 1259.79 637.9V623.794C1259.79 621.059 1256.71 618.842 1252.91 618.842Z" fill="#DADCE9"/>
<path d="M678.361 642.853V697.225H1240.29V642.853H678.361ZM759.781 687.549H729.158V663.572C729.158 660.652 730.768 657.851 733.636 655.786C736.503 653.721 740.392 652.561 744.446 652.561C748.501 652.561 752.39 653.721 755.257 655.786C758.124 657.851 759.735 660.652 759.735 663.572L759.781 687.549ZM831.385 687.549H800.807V663.572C800.807 660.652 802.418 657.851 805.285 655.786C808.152 653.721 812.041 652.561 816.096 652.561C820.151 652.561 824.039 653.721 826.907 655.786C829.774 657.851 831.385 660.652 831.385 663.572V687.549ZM902.943 687.549H872.366V663.572C872.366 660.652 873.976 657.851 876.844 655.786C879.711 653.721 883.6 652.561 887.654 652.561C891.709 652.561 895.598 653.721 898.465 655.786C901.333 657.851 902.943 660.652 902.943 663.572V687.549ZM974.547 687.549H944.015V663.572C944.015 660.652 945.626 657.851 948.493 655.786C951.36 653.721 955.249 652.561 959.304 652.561C963.359 652.561 967.247 653.721 970.115 655.786C972.982 657.851 974.593 660.652 974.593 663.572L974.547 687.549ZM1046.15 687.549H1015.57V663.572C1015.57 660.652 1017.18 657.851 1020.05 655.786C1022.92 653.721 1026.81 652.561 1030.86 652.561C1034.92 652.561 1038.81 653.721 1041.67 655.786C1044.54 657.851 1046.15 660.652 1046.15 663.572V687.549ZM1117.71 687.549H1087.13V663.572C1087.13 660.652 1088.74 657.851 1091.61 655.786C1094.48 653.721 1098.37 652.561 1102.42 652.561C1106.48 652.561 1110.37 653.721 1113.23 655.786C1116.1 657.851 1117.71 660.652 1117.71 663.572V687.549ZM1189.31 687.549H1158.87V663.572C1158.87 660.652 1160.48 657.851 1163.35 655.786C1166.22 653.721 1170.11 652.561 1174.16 652.561C1178.22 652.561 1182.1 653.721 1184.97 655.786C1187.84 657.851 1189.45 660.652 1189.45 663.572L1189.31 687.549Z" fill="#B2B7D1"/>
<path d="M155.24 290.066C159.944 290.815 164.724 291.294 169.533 291.5C174.268 291.739 179.017 291.804 183.782 291.695C188.305 291.695 193.236 291.402 197.985 291.011C202.767 290.639 207.501 289.996 212.143 289.089C207.442 288.325 202.661 287.845 197.849 287.656C193.1 287.428 188.35 287.362 183.601 287.428C178.851 287.493 174.147 287.753 169.398 288.144C164.616 288.517 159.882 289.159 155.24 290.066Z" fill="#E6E8F0"/>
<path d="M120.727 290.653C122.89 291.048 125.102 291.288 127.331 291.37C129.531 291.451 131.735 291.451 133.935 291.37C136.143 291.333 138.348 291.213 140.539 291.011C142.761 290.841 144.956 290.525 147.098 290.067C144.927 289.701 142.718 289.461 140.494 289.35C138.295 289.253 136.089 289.253 133.89 289.35C131.682 289.377 129.478 289.486 127.286 289.676C125.067 289.875 122.874 290.202 120.727 290.653Z" fill="#E6E8F0"/>
<path d="M176.183 250.452C178.759 253.377 181.663 256.144 184.867 258.727C188.034 261.333 191.291 263.776 194.728 266.155C198.166 268.533 201.739 270.748 205.494 272.898C209.24 275.074 213.218 277.035 217.39 278.762C214.815 275.827 211.91 273.049 208.705 270.455C205.539 267.881 202.237 265.405 198.799 263.06C195.362 260.714 191.788 258.466 188.079 256.316C184.326 254.147 180.349 252.187 176.183 250.452Z" fill="#E6E8F0"/>
<path d="M151.169 233.316C152.341 234.687 153.673 235.984 155.15 237.193C156.597 238.398 158.135 239.538 159.673 240.646C161.211 241.754 162.93 242.764 164.649 243.741C166.4 244.754 168.278 245.648 170.258 246.412C169.086 245.041 167.754 243.744 166.277 242.535C164.83 241.33 163.292 240.19 161.754 239.082C160.159 237.935 158.483 236.848 156.733 235.824C154.995 234.861 153.132 234.021 151.169 233.316Z" fill="#E6E8F0"/>
<path d="M229.874 233.12C228.835 236.509 228.169 239.951 227.884 243.415C227.552 246.825 227.462 250.246 227.613 253.677C227.613 256.935 228.02 260.486 228.563 263.907C229.075 267.351 229.968 270.761 231.231 274.103C232.274 270.716 232.94 267.273 233.222 263.809C233.538 260.388 233.629 256.968 233.493 253.579C233.409 250.149 233.077 246.723 232.498 243.317C231.996 239.874 231.119 236.465 229.874 233.12Z" fill="#E6E8F0"/>
<path d="M229.015 208.263C228.51 209.827 228.178 211.417 228.02 213.019C227.907 214.615 227.907 216.213 228.02 217.808C228.058 219.387 228.209 220.964 228.472 222.532C228.735 224.14 229.174 225.73 229.784 227.288C230.329 225.718 230.677 224.115 230.824 222.499C230.824 220.903 230.824 219.242 230.824 217.743C230.771 216.153 230.605 214.565 230.327 212.987C230.086 211.387 229.647 209.806 229.015 208.263Z" fill="#E6E8F0"/>
<path d="M284.833 248.203C280.78 250.067 276.938 252.158 273.344 254.458C269.77 256.739 266.333 259.117 263.076 261.56C259.773 264.051 256.648 266.66 253.713 269.379C250.692 272.077 247.969 274.942 245.571 277.947C249.632 276.092 253.474 274 257.06 271.692C260.679 269.412 264.071 267.066 267.373 264.59C270.675 262.114 273.751 259.606 276.827 256.771C279.816 254.078 282.494 251.212 284.833 248.203Z" fill="#E6E8F0"/>
<path d="M308.49 230.286C306.596 231.141 304.797 232.099 303.107 233.153C301.434 234.18 299.834 235.267 298.312 236.41C296.708 237.551 295.197 238.758 293.789 240.027C292.388 241.279 291.147 242.62 290.08 244.034C291.991 243.198 293.793 242.238 295.463 241.167C297.136 240.139 298.736 239.052 300.257 237.909C301.851 236.772 303.361 235.576 304.781 234.325C306.172 233.056 307.412 231.705 308.49 230.286Z" fill="#E6E8F0"/>
<path d="M308.942 286.874C304.237 286.128 299.458 285.648 294.648 285.441C289.914 285.223 285.164 285.158 280.4 285.245C275.65 285.245 270.901 285.538 266.197 285.929C261.399 286.298 256.65 286.941 251.993 287.851C256.699 288.598 261.478 289.077 266.287 289.285C271.052 289.502 275.801 289.567 280.536 289.48C285.285 289.48 290.035 289.187 294.739 288.796C299.536 288.424 304.285 287.781 308.942 286.874Z" fill="#E6E8F0"/>
<path d="M343.455 286.255C341.269 285.889 339.045 285.649 336.806 285.538C334.589 285.538 332.282 285.538 330.202 285.538C327.994 285.566 325.79 285.675 323.598 285.864C321.38 286.053 319.187 286.369 317.039 286.809C319.22 287.201 321.445 287.452 323.688 287.558C325.859 287.558 328.211 287.558 330.292 287.558C332.373 287.558 334.815 287.395 336.851 287.232C339.084 287.032 341.293 286.705 343.455 286.255Z" fill="#E6E8F0"/>
<path d="M287.999 326.489C285.404 323.575 282.485 320.819 279.27 318.246C276.148 315.673 272.846 313.197 269.409 310.851C265.971 308.506 262.398 306.225 258.688 304.108C254.926 301.932 250.934 299.971 246.747 298.244C249.338 301.169 252.258 303.937 255.477 306.518C258.598 309.125 261.9 311.568 265.338 313.946C268.775 316.324 272.349 318.54 276.103 320.69C279.864 322.833 283.84 324.771 287.999 326.489Z" fill="#E6E8F0"/>
<path d="M313.013 343.625C311.841 342.254 310.51 340.957 309.033 339.748C307.585 338.543 306.092 337.403 304.509 336.295C302.915 335.147 301.239 334.06 299.488 333.037C297.734 332.043 295.874 331.149 293.925 330.366C295.08 331.755 296.413 333.064 297.905 334.275C299.326 335.422 300.836 336.51 302.429 337.533C304.023 338.681 305.699 339.768 307.449 340.791C309.196 341.841 311.056 342.789 313.013 343.625Z" fill="#E6E8F0"/>
<path d="M234.308 343.82C235.352 340.433 236.002 336.99 236.253 333.525C236.569 330.105 236.66 326.684 236.569 323.263C236.487 319.843 236.155 316.429 235.574 313.034C235.079 309.577 234.187 306.155 232.905 302.804C231.884 306.194 231.233 309.636 230.96 313.099C230.644 316.52 230.553 319.94 230.644 323.361C230.734 326.782 231.096 330.202 231.639 333.59C232.151 337.046 233.044 340.466 234.308 343.82Z" fill="#E6E8F0"/>
<path d="M235.122 368.677C235.655 367.095 235.988 365.481 236.117 363.856C236.23 362.271 236.23 360.684 236.117 359.099C236.062 357.509 235.896 355.921 235.619 354.343C235.379 352.743 234.94 351.162 234.307 349.619C233.799 351.194 233.467 352.795 233.312 354.408C233.199 355.992 233.199 357.58 233.312 359.164C233.312 360.728 233.539 362.422 233.81 363.921C234.048 365.531 234.487 367.123 235.122 368.677Z" fill="#E6E8F0"/>
<path d="M179.304 328.736C183.389 326.865 187.261 324.762 190.884 322.449C194.502 320.201 197.895 317.823 201.197 315.347C204.499 312.871 207.575 310.297 210.56 307.626C213.582 304.935 216.29 302.069 218.657 299.058C214.578 300.887 210.706 302.946 207.077 305.215C203.504 307.463 200.066 309.841 196.809 312.317C193.553 314.793 190.431 317.367 187.446 320.071C184.419 322.8 181.697 325.698 179.304 328.736Z" fill="#E6E8F0"/>
<path d="M155.511 346.719C157.425 345.885 159.227 344.926 160.894 343.852C162.568 342.826 164.169 341.739 165.689 340.595C167.182 339.422 168.629 338.249 169.986 336.978C171.382 335.723 172.623 334.382 173.695 332.971C171.791 333.815 169.991 334.774 168.312 335.838C166.639 336.865 165.039 337.952 163.518 339.096C162.025 340.236 160.578 341.442 158.994 342.68C157.675 343.952 156.509 345.303 155.511 346.719Z" fill="#E6E8F0"/>
<path d="M188.939 276.612C191.313 277.828 193.807 278.917 196.402 279.87C198.981 280.782 201.604 281.597 204.228 282.346C206.851 283.095 209.61 283.747 212.37 284.301C215.139 284.888 217.967 285.324 220.828 285.604C218.506 284.403 216.055 283.335 213.5 282.411C210.922 281.499 208.344 280.652 205.675 279.935C203.006 279.219 200.292 278.534 197.533 277.948C194.726 277.329 191.851 276.882 188.939 276.612Z" fill="#E6E8F0"/>
<path d="M169.624 271.204C170.706 271.776 171.857 272.277 173.062 272.702C174.238 273.126 175.459 273.517 176.681 273.875C177.909 274.217 179.162 274.511 180.435 274.755C181.735 275.034 183.067 275.231 184.415 275.341C183.318 274.768 182.153 274.267 180.932 273.842C179.757 273.394 178.549 272.992 177.314 272.637C176.093 272.311 174.826 271.985 173.559 271.725C172.267 271.483 170.952 271.308 169.624 271.204Z" fill="#E6E8F0"/>
<path d="M213.229 258.107C213.718 260.157 214.444 262.173 215.4 264.134C216.305 266.089 217.345 268.011 218.521 269.901C219.652 271.758 220.919 273.615 222.321 275.406C223.644 277.234 225.156 278.987 226.844 280.651C226.361 278.591 225.635 276.564 224.673 274.592C223.768 272.637 222.728 270.748 221.597 268.858C220.466 266.969 219.154 265.144 217.752 263.32C216.429 261.503 214.917 259.76 213.229 258.107Z" fill="#E6E8F0"/>
<path d="M204.861 244.458C205.06 245.41 205.378 246.348 205.811 247.259C206.226 248.168 206.71 249.06 207.258 249.931C207.755 250.809 208.345 251.658 209.022 252.472C209.65 253.326 210.392 254.133 211.239 254.882C211.04 253.93 210.722 252.992 210.289 252.081C209.882 251.169 209.384 250.289 208.887 249.409C208.356 248.537 207.752 247.688 207.077 246.868C206.45 246.014 205.708 245.207 204.861 244.458Z" fill="#E6E8F0"/>
<path d="M248.556 257.391C246.851 259.093 245.338 260.89 244.032 262.766C242.766 264.623 241.635 266.513 240.595 268.435C239.554 270.357 238.65 272.279 237.835 274.266C237.014 276.258 236.424 278.296 236.071 280.358C237.769 278.653 239.281 276.856 240.595 274.983C241.861 273.126 242.992 271.269 244.032 269.347C245.073 267.425 245.977 265.47 246.746 263.515C247.583 261.513 248.188 259.465 248.556 257.391Z" fill="#E6E8F0"/>
<path d="M256.065 243.48C255.254 244.251 254.556 245.081 253.984 245.956C253.358 246.796 252.814 247.667 252.355 248.562C251.866 249.446 251.443 250.349 251.089 251.266C250.72 252.204 250.463 253.163 250.32 254.133C251.105 253.349 251.801 252.521 252.401 251.657C252.989 250.777 253.531 249.93 254.029 249.018C254.527 248.106 254.889 247.226 255.25 246.314C255.638 245.389 255.91 244.44 256.065 243.48Z" fill="#E6E8F0"/>
<path d="M274.248 274.886C271.392 275.249 268.579 275.772 265.835 276.449C263.131 277.102 260.474 277.853 257.874 278.697C255.25 279.512 252.717 280.424 250.184 281.434C247.661 282.387 245.242 283.476 242.947 284.692C245.792 284.34 248.591 283.817 251.315 283.128C254.029 282.476 256.698 281.727 259.321 280.913C261.945 280.098 264.478 279.153 266.966 278.176C269.504 277.212 271.938 276.112 274.248 274.886Z" fill="#E6E8F0"/>
<path d="M293.201 268.858C291.878 269.001 290.576 269.23 289.311 269.542C288.047 269.836 286.808 270.184 285.602 270.585C284.38 270.976 283.204 271.399 282.028 271.855C280.855 272.334 279.736 272.879 278.681 273.484C280.015 273.315 281.331 273.075 282.616 272.767C283.877 272.479 285.115 272.142 286.325 271.758C287.502 271.367 288.678 270.943 289.854 270.454C291.039 270.003 292.161 269.468 293.201 268.858Z" fill="#E6E8F0"/>
<path d="M275.198 300.329C272.837 299.099 270.341 298.01 267.735 297.071C265.202 296.159 262.578 295.345 259.91 294.595C257.241 293.846 254.572 293.194 251.813 292.608C249.032 292.016 246.188 291.591 243.309 291.338C245.681 292.573 248.193 293.662 250.818 294.595C253.351 295.507 255.974 296.322 258.643 297.071C261.312 297.821 263.981 298.472 266.74 299.058C269.507 299.647 272.336 300.072 275.198 300.329Z" fill="#E6E8F0"/>
<path d="M294.558 305.737C293.476 305.165 292.326 304.663 291.12 304.238C289.929 303.8 288.706 303.409 287.456 303.065C286.231 302.708 284.977 302.403 283.702 302.153C282.411 301.9 281.095 301.715 279.767 301.599C280.849 302.171 281.999 302.673 283.204 303.098C284.38 303.521 285.602 303.912 286.823 304.271C288.067 304.613 289.335 304.906 290.623 305.15C291.908 305.429 293.225 305.626 294.558 305.737Z" fill="#E6E8F0"/>
<path d="M250.953 318.832C250.423 316.776 249.682 314.751 248.737 312.773C247.832 310.818 246.792 308.929 245.661 307.039C244.53 305.15 243.218 303.325 241.861 301.534C240.564 299.696 239.05 297.941 237.338 296.289C237.832 298.348 238.558 300.374 239.509 302.348C240.416 304.296 241.458 306.209 242.63 308.082C243.761 309.939 245.028 311.796 246.43 313.587C247.738 315.421 249.251 317.175 250.953 318.832Z" fill="#E6E8F0"/>
<path d="M259.322 332.483C259.086 331.533 258.754 330.596 258.326 329.682C257.926 328.774 257.458 327.882 256.924 327.01C256.381 326.131 255.793 325.284 255.16 324.436C254.48 323.598 253.724 322.793 252.898 322.026C253.097 322.989 253.415 323.938 253.848 324.86C254.301 325.772 254.753 326.652 255.296 327.531C255.839 328.411 256.427 329.258 257.06 330.073C257.703 330.927 258.46 331.735 259.322 332.483Z" fill="#E6E8F0"/>
<path d="M215.581 319.549C217.313 317.849 218.827 316.039 220.104 314.141C221.359 312.296 222.476 310.404 223.452 308.473C224.447 306.583 225.397 304.629 226.166 302.641C226.976 300.645 227.58 298.609 227.975 296.549C226.234 298.234 224.72 300.034 223.452 301.925C222.153 303.758 220.991 305.639 219.969 307.561C218.974 309.483 218.024 311.405 217.255 313.392C216.483 315.411 215.924 317.47 215.581 319.549Z" fill="#E6E8F0"/>
<path d="M208.118 333.46C208.912 332.681 209.608 331.853 210.198 330.984C210.786 330.137 211.329 329.258 211.827 328.378C212.324 327.499 212.686 326.586 213.048 325.642C213.436 324.716 213.708 323.768 213.862 322.807C213.051 323.578 212.354 324.408 211.782 325.283C211.156 326.124 210.612 326.995 210.153 327.89C209.663 328.785 209.241 329.698 208.887 330.626C208.535 331.556 208.278 332.503 208.118 333.46Z" fill="#E6E8F0"/>
<path d="M189.934 301.957C192.775 301.579 195.573 301.045 198.302 300.361C201.016 299.709 203.685 298.96 206.263 298.146C208.892 297.332 211.458 296.419 213.953 295.409C216.482 294.477 218.903 293.398 221.19 292.184C218.354 292.566 215.558 293.089 212.822 293.748C210.108 294.432 207.439 295.181 204.861 295.995C202.282 296.81 199.704 297.722 197.171 298.732C194.641 299.664 192.221 300.743 189.934 301.957Z" fill="#E6E8F0"/>
<path d="M170.936 308.083C172.274 307.94 173.591 307.711 174.871 307.398C176.138 307.073 177.359 306.747 178.581 306.356C179.802 305.965 180.978 305.542 182.109 305.085C183.286 304.611 184.405 304.066 185.456 303.457C184.132 303.611 182.83 303.851 181.566 304.173C180.305 304.461 179.067 304.799 177.857 305.183C176.635 305.574 175.459 305.998 174.283 306.454C173.12 306.944 172.002 307.488 170.936 308.083Z" fill="#E6E8F0"/>
<path d="M291.03 314.988C351.778 343.494 378.013 399.528 369.645 449.958C368.514 457.223 366.795 464.423 364.669 471.558C377.606 413.862 357.884 351.801 291.03 314.988Z" fill="#E6E8F0"/>
<path d="M779.412 68.2106C770.08 74.4256 760.083 80.1009 749.512 85.1837C739.109 90.2658 728.389 94.957 717.442 99.355C706.496 103.753 695.278 107.793 683.744 111.441C672.107 115.218 660.066 118.312 647.738 120.694C657.057 114.459 667.056 108.772 677.637 103.688C688.041 98.6058 698.731 93.882 709.707 89.5165C720.654 85.1511 731.872 81.1114 743.406 77.4627C755.051 73.7002 767.09 70.6065 779.412 68.2106Z" fill="#E6E8F0"/>
<path d="M859.158 36.3827C854.948 39.3184 850.41 41.9989 845.588 44.3969C840.793 46.775 835.818 48.9903 830.751 50.9124C825.685 52.8345 820.438 54.8218 815.101 56.4833C809.69 58.1919 804.092 59.5758 798.365 60.6206C802.562 57.6756 807.102 54.9945 811.934 52.6065C816.729 50.2283 821.705 48.013 826.771 46.0909C831.837 44.1688 837.084 42.2141 842.422 40.5527C847.826 38.8239 853.425 37.4289 859.158 36.3827Z" fill="#E6E8F0"/>
<path d="M658.277 -1.89624C657.785 7.25476 656.273 16.3625 653.754 25.3389C651.402 34.2327 648.462 43.0287 645.024 51.6944C641.586 60.3601 637.606 68.9607 633.037 77.3984C628.561 85.9639 623.13 94.2549 616.799 102.19C617.291 93.0391 618.803 83.9314 621.322 74.955C623.674 66.0721 626.599 57.2869 630.097 48.5995C633.58 39.9338 637.515 31.3658 642.084 22.9281C646.583 14.3645 651.998 6.0649 658.277 -1.89624Z" fill="#E6E8F0"/>
<path d="M503.806 10.2228C512.45 16.9464 520.331 24.1583 527.373 31.7893C534.475 39.2823 540.943 46.9707 547.095 54.8545C553.246 62.7384 558.765 70.8503 563.831 79.125C569.086 87.4693 573.382 96.1096 576.677 104.959C568.048 98.2387 560.168 91.0384 553.111 83.4253C546.009 75.9324 539.541 68.2115 533.434 60.3276C527.328 52.4437 521.764 44.3318 516.698 36.0571C511.456 27.7057 507.145 19.067 503.806 10.2228Z" fill="#E6E8F0"/>
<path d="M406.465 97.4663C419.184 97.835 431.843 98.9243 444.325 100.724C456.673 102.418 468.841 104.568 480.918 107.044C492.996 109.52 504.847 112.387 516.562 115.645C528.459 118.9 539.983 122.821 551.03 127.373C538.309 127.02 525.648 125.931 513.17 124.115C500.821 122.421 488.653 120.303 476.576 117.795C464.499 115.286 452.648 112.452 440.932 109.162C429.028 105.931 417.502 102.021 406.465 97.4663Z" fill="#E6E8F0"/>
<path d="M318.848 79.3529C324.757 79.4434 330.644 79.9012 336.444 80.7212C342.188 81.4705 347.843 82.4478 353.452 83.588C359.048 84.729 364.558 86.0773 369.962 87.6277C375.486 89.1576 380.813 91.0326 385.884 93.2311C379.975 93.1406 374.088 92.6828 368.288 91.8628C362.543 91.1135 356.889 90.1362 351.28 88.996C345.671 87.8557 340.198 86.4875 334.77 84.9563C329.258 83.4064 323.933 81.5323 318.848 79.3529Z" fill="#E6E8F0"/>
<path d="M423.337 208.719C432.668 202.504 442.665 196.829 453.236 191.746C463.639 186.664 474.359 181.973 485.306 177.575C496.252 173.177 507.47 169.137 519.005 165.488C530.591 161.732 542.569 158.639 554.829 156.236C545.51 162.471 535.512 168.158 524.93 173.242C514.526 178.324 503.836 183.048 492.86 187.413C481.913 191.779 470.696 195.818 459.161 199.467C447.583 203.237 435.603 206.331 423.337 208.719Z" fill="#E6E8F0"/>
<path d="M343.591 240.549C347.8 237.613 352.339 234.932 357.161 232.534C361.955 230.156 366.931 227.941 371.997 226.019C377.063 224.097 382.31 222.142 387.648 220.448C393.059 218.739 398.656 217.355 404.384 216.311C400.186 219.256 395.646 221.937 390.814 224.325C386.019 226.703 381.044 228.918 375.977 230.84C370.911 232.762 365.664 234.717 360.327 236.411C354.913 238.115 349.316 239.499 343.591 240.549Z" fill="#E6E8F0"/>
<path d="M544.471 278.827C544.963 269.676 546.476 260.568 548.994 251.592C551.346 242.698 554.287 233.902 557.724 225.236C561.162 216.571 565.142 207.97 569.711 199.532C574.184 191.024 579.599 182.788 585.904 174.904C585.413 184.055 583.9 193.162 581.381 202.139C579.029 211.022 576.104 219.807 572.606 228.494C569.123 237.16 565.188 245.728 560.619 254.198C556.115 262.692 550.716 270.925 544.471 278.827Z" fill="#E6E8F0"/>
<path d="M519.322 341.931C519.435 337.676 520.055 333.436 521.176 329.258C522.217 325.121 523.574 321.048 525.157 317.041C526.74 313.034 528.64 309.027 530.766 305.118C532.918 301.148 535.52 297.313 538.546 293.65C538.435 297.916 537.814 302.167 536.691 306.356C534.534 314.602 531.308 322.684 527.057 330.496C524.939 334.46 522.351 338.286 519.322 341.931Z" fill="#E6E8F0"/>
<path d="M698.942 266.708C690.299 259.996 682.419 252.795 675.376 245.174C668.274 237.681 661.806 229.96 655.654 222.077C649.502 214.193 643.984 206.113 638.918 197.806C633.656 189.464 629.359 180.823 626.072 171.972C634.701 178.692 642.581 185.893 649.638 193.506C656.74 200.999 663.208 208.72 669.314 216.604C675.421 224.487 680.985 232.599 686.051 240.874C691.293 249.225 695.604 257.864 698.942 266.708Z" fill="#E6E8F0"/>
<path d="M743.135 324.143C739.046 321.12 735.323 317.85 732.007 314.37C728.738 310.912 725.718 307.334 722.961 303.652C720.103 299.997 717.521 296.234 715.226 292.38C712.812 288.491 710.874 284.458 709.436 280.326C713.548 283.402 717.286 286.726 720.609 290.262C723.872 293.712 726.892 297.278 729.655 300.948C732.504 304.606 735.086 308.368 737.39 312.22C739.772 316.069 741.694 320.058 743.135 324.143Z" fill="#E6E8F0"/>
<path d="M796.238 179.465C783.534 179.094 770.89 178.005 758.423 176.207C746.075 174.513 733.907 172.396 721.83 169.887C709.753 167.379 697.901 164.577 686.186 161.287C674.281 158.045 662.755 154.123 651.719 149.558C664.425 149.909 677.071 150.998 689.533 152.816C701.927 154.51 714.095 156.628 726.127 159.136C738.159 161.645 750.101 164.479 761.816 167.77C773.709 170.994 785.22 174.905 796.238 179.465Z" fill="#E6E8F0"/>
<path d="M883.9 197.708C877.994 197.612 872.109 197.165 866.305 196.372C860.56 195.59 854.906 194.613 849.297 193.473C843.701 192.332 838.19 190.984 832.787 189.433C827.264 187.914 821.936 186.05 816.865 183.862C822.774 183.926 828.663 184.373 834.46 185.198C840.205 185.947 845.859 186.925 851.468 188.065C857.077 189.205 862.55 190.573 867.978 192.105C873.49 193.654 878.815 195.529 883.9 197.708Z" fill="#E6E8F0"/>
<path d="M677.637 69.9375C674.46 74.9407 670.739 79.7555 666.51 84.3369C662.349 88.8544 657.931 93.1981 653.257 97.3681C648.733 101.603 643.622 105.708 638.42 109.65C633.196 113.658 627.54 117.362 621.503 120.726C624.691 115.779 628.411 111.019 632.63 106.49C636.792 101.951 641.225 97.607 645.929 93.4587C650.633 89.3105 655.564 85.2166 660.72 81.1769C665.947 77.121 671.603 73.3632 677.637 69.9375Z" fill="#E6E8F0"/>
<path d="M711.698 39.0536C710.251 41.4041 708.526 43.6603 706.541 45.7972C704.65 47.9115 702.612 49.9556 700.435 51.9219C698.304 53.9105 696.024 55.8137 693.604 57.623C691.166 59.4846 688.502 61.1855 685.643 62.7051C687.094 60.3729 688.803 58.1287 690.755 55.9941C694.563 51.7618 698.925 47.8019 703.782 44.1683C706.224 42.3122 708.872 40.6017 711.698 39.0536Z" fill="#E6E8F0"/>
<path d="M588.031 51.1072C590.691 56.2572 592.778 61.5515 594.273 66.94C595.811 72.2828 596.987 77.6256 597.846 83.0335C598.706 88.4415 599.248 93.8168 599.429 99.3225C599.662 104.764 599.299 110.211 598.344 115.611C595.697 110.525 593.61 105.296 592.101 99.974C590.564 94.6313 589.388 89.2885 588.528 83.8805C587.669 78.4726 587.126 73.0973 586.945 67.5916C586.72 62.0849 587.083 56.5738 588.031 51.1072Z" fill="#E6E8F0"/>
<path d="M581.788 12.0137C583.073 14.3937 584.087 16.8452 584.819 19.3437C585.543 21.8196 586.131 24.2955 586.538 26.804C586.945 29.3125 587.171 31.821 587.216 34.3295C587.297 36.8897 587.085 39.4502 586.583 41.9853C585.298 39.6053 584.285 37.1539 583.553 34.6553C582.815 32.1912 582.257 29.701 581.879 27.195C581.472 24.6865 581.246 22.178 581.155 19.6695C581.074 17.1093 581.286 14.5488 581.788 12.0137Z" fill="#E6E8F0"/>
<path d="M506.249 83.6851C513.183 85.9843 519.853 88.6749 526.197 91.7318C532.53 94.6855 538.636 97.8673 544.516 101.277C550.397 104.687 556.156 108.184 561.795 111.767C567.362 115.541 572.504 119.626 577.175 123.984C570.241 121.685 563.571 118.994 557.227 115.937C550.894 112.962 544.788 109.78 538.907 106.392C533.027 103.004 527.343 99.4419 521.855 95.7063C516.22 92.0022 511.002 87.9826 506.249 83.6851Z" fill="#E6E8F0"/>
<path d="M463.368 58.9917C466.605 60.0255 469.721 61.2457 472.686 62.6404C478.535 65.411 484.029 68.5508 489.105 72.0229C491.678 73.7871 494.039 75.7052 496.162 77.7566C492.901 76.7357 489.769 75.515 486.798 74.1078C480.926 71.3755 475.441 68.2328 470.424 64.7254C467.839 62.9696 465.478 61.0507 463.368 58.9917Z" fill="#E6E8F0"/>
<path d="M480.375 148.06C487.543 146.154 494.909 144.662 502.404 143.596C509.777 142.489 517.24 141.642 524.704 140.99C532.167 140.339 539.721 139.98 547.32 139.883C554.876 139.699 562.44 139.96 569.937 140.664C562.764 142.566 555.4 144.069 547.908 145.16C540.535 146.268 533.072 147.115 525.609 147.701C518.145 148.288 510.591 148.711 502.992 148.841C495.436 149.009 487.874 148.748 480.375 148.06Z" fill="#E6E8F0"/>
<path d="M425.734 152.555C429.048 151.625 432.469 150.906 435.957 150.405C439.377 149.863 442.835 149.45 446.315 149.167C449.784 148.872 453.272 148.709 456.764 148.679C460.304 148.605 463.846 148.758 467.349 149.135C464.046 150.064 460.642 150.795 457.171 151.317C453.733 151.839 450.296 152.23 446.813 152.523C443.344 152.818 439.856 152.981 436.364 153.011C432.809 153.085 429.252 152.932 425.734 152.555Z" fill="#E6E8F0"/>
<path d="M525.066 206.993C528.268 201.992 532.004 197.178 536.238 192.593C540.4 188.054 544.818 183.71 549.492 179.562C554.166 175.414 559.111 171.309 564.328 167.248C569.541 163.232 575.199 159.527 581.245 156.171C578.078 161.178 574.357 165.993 570.118 170.571C565.956 175.131 561.524 179.497 556.819 183.765C552.115 188.032 547.23 192.105 541.983 196.014C536.775 200.004 531.116 203.676 525.066 206.993Z" fill="#E6E8F0"/>
<path d="M491.051 237.877C492.468 235.529 494.163 233.272 496.117 231.133C498.017 229.016 500.052 226.996 502.223 225.009C504.396 223.036 506.706 221.144 509.144 219.34C511.577 217.486 514.225 215.786 517.06 214.258C515.652 216.599 513.957 218.845 511.994 220.969C510.103 223.094 508.065 225.149 505.887 227.126C503.716 229.081 501.409 230.97 498.967 232.795C496.522 234.639 493.875 236.339 491.051 237.877Z" fill="#E6E8F0"/>
<path d="M614.718 225.758C612.057 220.608 609.97 215.313 608.476 209.925C606.938 204.582 605.762 199.239 604.902 193.831C604.043 188.423 603.5 183.048 603.319 177.542C603.086 172.1 603.449 166.654 604.405 161.253C607.065 166.403 609.152 171.698 610.647 177.086C612.185 182.429 613.361 187.772 614.22 193.18C615.08 198.588 615.622 203.963 615.758 209.469C616.006 214.91 615.658 220.356 614.718 225.758Z" fill="#E6E8F0"/>
<path d="M620.96 264.949C619.669 262.571 618.655 260.119 617.929 257.619C617.206 255.143 616.618 252.667 616.211 250.159C615.804 247.65 615.577 245.142 615.532 242.633C615.429 240.073 615.641 237.511 616.165 234.978C617.45 237.358 618.464 239.809 619.196 242.308C619.93 244.772 620.488 247.262 620.87 249.768C621.277 252.276 621.503 254.785 621.593 257.293C621.674 259.854 621.462 262.414 620.96 264.949Z" fill="#E6E8F0"/>
<path d="M696.499 193.408C689.557 191.121 682.886 188.43 676.552 185.361C670.219 182.407 664.112 179.225 658.232 175.816C652.352 172.406 646.668 168.844 641.179 165.13C635.603 161.364 630.459 157.278 625.8 152.913C632.733 155.213 639.404 157.903 645.748 160.96C652.08 163.957 658.187 167.139 664.067 170.505C669.948 173.872 675.632 177.434 681.12 181.191C686.687 184.964 691.83 189.049 696.499 193.408Z" fill="#E6E8F0"/>
<path d="M739.38 217.939C736.143 216.905 733.027 215.685 730.062 214.291C727.047 212.922 724.197 211.456 721.513 209.893C718.829 208.329 716.206 206.667 713.643 204.908C711.07 203.144 708.709 201.226 706.586 199.174C709.847 200.195 712.979 201.416 715.95 202.823C721.823 205.556 727.307 208.698 732.324 212.206C734.909 213.961 737.27 215.88 739.38 217.939Z" fill="#E6E8F0"/>
<path d="M722.599 128.871C715.432 130.777 708.066 132.269 700.57 133.334C693.197 134.474 685.734 135.321 678.27 135.94C670.807 136.559 663.253 136.95 655.654 137.081C648.098 137.248 640.536 136.987 633.037 136.299C640.196 134.368 647.564 132.864 655.066 131.803C662.439 130.695 669.902 129.848 677.366 129.229C684.829 128.61 692.383 128.22 699.982 128.089C707.538 127.922 715.1 128.183 722.599 128.871Z" fill="#E6E8F0"/>
<path d="M777.014 124.376C773.694 125.301 770.275 126.031 766.791 126.558C763.354 127.08 759.916 127.47 756.433 127.764C752.95 128.057 749.512 128.22 745.984 128.285C742.428 128.33 738.873 128.167 735.354 127.796C738.668 126.866 742.089 126.147 745.577 125.646C748.998 125.104 752.455 124.691 755.936 124.408C759.404 124.113 762.892 123.95 766.384 123.919C769.939 123.847 773.496 123.999 777.014 124.376Z" fill="#E6E8F0"/>
<path opacity="0.3" d="M677.638 203.702C818.222 284.105 879.92 419.498 873.361 545.77C872.909 558.476 871.281 572.647 869.833 585.287C871.235 568.021 872.457 549.875 871.914 532.576C870.783 410.898 809.628 283.486 677.638 203.702Z" fill="#E6E8F0"/>
<path d="M1400.28 129.294C1409.64 135.512 1419.67 141.187 1430.27 146.267C1440.68 151.35 1451.4 156.041 1462.34 160.439C1473.29 164.837 1484.51 168.876 1496.04 172.525C1507.63 176.281 1519.6 179.375 1531.86 181.777C1522.55 175.542 1512.55 169.855 1501.97 164.772C1491.56 159.689 1480.87 154.966 1469.9 150.6C1458.95 146.235 1447.73 142.195 1436.2 138.546C1424.58 134.787 1412.57 131.693 1400.28 129.294Z" fill="#DADCE9"/>
<path d="M1320.54 97.4663C1324.74 100.402 1329.28 103.083 1334.11 105.48C1338.9 107.859 1343.88 110.074 1348.94 111.996C1354.01 113.918 1359.25 115.873 1364.59 117.567C1370 119.276 1375.6 120.659 1381.33 121.704C1377.13 118.759 1372.59 116.078 1367.76 113.69C1362.96 111.312 1357.99 109.097 1352.92 107.175C1347.86 105.252 1342.61 103.298 1337.27 101.604C1331.86 99.8999 1326.26 98.5163 1320.54 97.4663Z" fill="#DADCE9"/>
<path d="M1521.42 59.1874C1521.91 68.3384 1523.42 77.4461 1525.94 86.4225C1528.29 95.3163 1531.23 104.112 1534.67 112.778C1538.11 121.444 1542.09 130.012 1546.66 138.482C1551.13 147.048 1556.56 155.338 1562.89 163.274C1562.4 154.123 1560.89 145.015 1558.37 136.039C1556.05 127.199 1553.14 118.436 1549.64 109.748C1546.16 101.083 1542.22 92.5146 1537.65 84.0443C1533.14 75.4707 1527.71 67.1605 1521.42 59.1874Z" fill="#DADCE9"/>
<path d="M1496.27 -3.91626C1496.38 0.338462 1497 4.57831 1498.12 8.75654C1499.16 12.8939 1500.52 16.9662 1502.1 20.9733C1503.68 24.9803 1505.58 28.9874 1507.71 32.8968C1509.86 36.8666 1512.46 40.702 1515.49 44.3642C1515.38 40.0985 1514.76 35.8475 1513.64 31.6588C1511.48 23.413 1508.25 15.3309 1504 7.51858C1501.88 3.55417 1499.3 -0.271557 1496.27 -3.91626Z" fill="#DADCE9"/>
<path d="M1675.89 71.306C1667.24 78.0183 1659.36 85.2194 1652.32 92.84C1645.22 100.333 1638.75 108.054 1632.6 115.938C1626.45 123.822 1620.93 131.901 1615.86 140.208C1610.6 148.55 1606.3 157.191 1603.02 166.043C1611.65 159.322 1619.53 152.122 1626.58 144.509C1633.68 137.016 1640.15 129.295 1646.26 121.411C1652.37 113.527 1657.93 105.415 1663 97.1403C1668.24 88.789 1672.55 80.1502 1675.89 71.306Z" fill="#DADCE9"/>
<path d="M1720.08 13.871C1715.99 16.8944 1712.27 20.1641 1708.95 23.6443C1705.68 27.1025 1702.66 30.68 1699.91 34.3625C1697.05 38.017 1694.47 41.7798 1692.17 45.6344C1689.76 49.5231 1687.82 53.5564 1686.38 57.6883C1690.44 54.6397 1694.13 51.3483 1697.42 47.8497C1700.68 44.4 1703.7 40.8336 1706.46 37.1642C1709.32 33.5096 1711.9 29.7468 1714.2 25.8922C1716.64 22.0142 1718.6 17.9922 1720.08 13.871Z" fill="#DADCE9"/>
<path d="M1773.18 158.614C1760.48 158.985 1747.84 160.074 1735.37 161.872C1723.02 163.566 1710.85 165.684 1698.78 168.192C1686.7 170.701 1674.85 173.502 1663.13 176.793C1651.22 180.028 1639.7 183.95 1628.66 188.521C1641.37 188.17 1654.02 187.081 1666.48 185.263C1678.87 183.569 1691.04 181.451 1703.07 178.943C1715.1 176.434 1727.05 173.6 1738.76 170.31C1750.65 167.086 1762.17 163.175 1773.18 158.614Z" fill="#DADCE9"/>
<path d="M1860.85 140.437C1854.94 140.533 1849.05 140.979 1843.25 141.772C1837.51 142.554 1831.85 143.532 1826.24 144.672C1820.64 145.855 1815.13 147.247 1809.73 148.842C1804.21 150.36 1798.88 152.224 1793.81 154.413C1799.72 154.349 1805.61 153.902 1811.41 153.077C1817.15 152.328 1822.8 151.35 1828.41 150.21C1834.02 149.07 1839.5 147.702 1844.92 146.17C1850.44 144.579 1855.77 142.661 1860.85 140.437Z" fill="#DADCE9"/>
<path d="M1756.36 269.803C1747.02 263.588 1737.03 257.912 1726.46 252.83C1716.05 247.747 1705.33 243.056 1694.39 238.658C1683.44 234.26 1672.22 230.221 1660.69 226.572C1649.08 222.776 1637.07 219.66 1624.77 217.255C1634.09 223.49 1644.09 229.176 1654.67 234.26C1665.08 239.342 1675.77 244.066 1686.74 248.432C1697.69 252.797 1708.91 256.837 1720.44 260.485C1732.05 264.267 1744.06 267.382 1756.36 269.803Z" fill="#DADCE9"/>
<path d="M1836.1 301.632C1831.89 298.696 1827.35 296.016 1822.53 293.618C1817.74 291.24 1812.76 289.025 1807.7 287.102C1802.63 285.18 1797.38 283.193 1792.05 281.532C1786.63 279.823 1781.04 278.439 1775.31 277.394C1779.51 280.339 1784.05 283.02 1788.88 285.408C1793.67 287.787 1798.65 290.002 1803.72 291.924C1808.78 293.846 1814.03 295.801 1819.37 297.462C1824.77 299.191 1830.37 300.586 1836.1 301.632Z" fill="#DADCE9"/>
<path d="M1635.22 339.911C1634.73 330.76 1633.22 321.652 1630.7 312.676C1628.35 303.782 1625.41 294.986 1621.97 286.32C1618.53 277.654 1614.55 269.054 1609.98 260.616C1605.51 252.051 1600.08 243.76 1593.74 235.824C1594.24 244.975 1595.75 254.083 1598.27 263.06C1600.62 271.943 1603.54 280.728 1607.04 289.415C1610.53 298.081 1614.46 306.649 1619.03 315.087C1623.53 323.65 1628.94 331.95 1635.22 339.911Z" fill="#DADCE9"/>
<path d="M1660.37 402.949C1660.26 398.694 1659.64 394.454 1658.52 390.276C1657.48 386.139 1656.12 382.067 1654.54 378.06C1652.95 374.053 1651.05 370.045 1648.93 366.136C1646.78 362.166 1644.17 358.331 1641.15 354.669C1641.26 358.934 1641.88 363.185 1643 367.374C1645.15 375.611 1648.38 383.682 1652.64 391.482C1654.75 395.459 1657.33 399.297 1660.37 402.949Z" fill="#DADCE9"/>
<path d="M1480.75 327.792C1489.39 321.068 1497.28 313.856 1504.32 306.225C1511.42 298.732 1517.89 291.044 1524.04 283.16C1530.19 275.276 1535.71 267.164 1540.78 258.889C1546.01 250.539 1550.31 241.9 1553.62 233.055C1544.99 239.776 1537.11 246.976 1530.06 254.589C1522.95 262.082 1516.49 269.803 1510.38 277.687C1504.27 285.571 1498.71 293.683 1493.64 301.957C1488.4 310.309 1484.09 318.948 1480.75 327.792Z" fill="#DADCE9"/>
<path d="M1436.56 385.226C1440.66 382.15 1444.38 378.826 1447.69 375.29C1454.28 368.375 1459.95 361.022 1464.6 353.333C1467.01 349.442 1468.95 345.409 1470.39 341.279C1466.29 344.302 1462.55 347.572 1459.22 351.052C1455.92 354.538 1452.89 358.089 1450.17 361.77C1447.35 365.432 1444.78 369.194 1442.48 373.042C1440.02 376.972 1438.04 381.049 1436.56 385.226Z" fill="#DADCE9"/>
<path d="M1383.41 240.548C1396.13 240.18 1408.79 239.09 1421.27 237.291C1433.62 235.597 1445.79 233.446 1457.86 230.97C1469.94 228.495 1481.79 225.628 1493.51 222.37C1505.4 219.115 1516.93 215.193 1527.97 210.642C1515.25 210.994 1502.59 212.084 1490.11 213.9C1477.77 215.594 1465.6 217.711 1453.52 220.187C1441.44 222.663 1429.59 225.563 1417.88 228.853C1405.97 232.083 1394.45 235.994 1383.41 240.548Z" fill="#DADCE9"/>
<path d="M1295.79 258.662C1301.7 258.571 1307.59 258.114 1313.39 257.294C1319.13 256.544 1324.79 255.567 1330.4 254.427C1335.99 253.286 1341.5 251.937 1346.91 250.387C1352.43 248.857 1357.76 246.982 1362.83 244.784C1356.92 244.874 1351.03 245.332 1345.23 246.152C1339.49 246.901 1333.83 247.879 1328.23 249.019C1322.62 250.159 1317.14 251.527 1311.72 253.058C1306.2 254.608 1300.88 256.483 1295.79 258.662Z" fill="#DADCE9"/>
<path d="M1502.01 131.021C1505.2 136.077 1508.94 140.946 1513.18 145.583C1517.35 150.101 1521.76 154.444 1526.44 158.614C1531.11 162.784 1536.06 166.889 1541.27 170.929C1546.49 174.945 1552.14 178.649 1558.19 182.005C1555.02 176.999 1551.3 172.183 1547.06 167.606C1542.9 163.045 1538.47 158.68 1533.76 154.575C1529.06 150.47 1524.18 146.235 1518.93 142.293C1513.73 138.209 1508.07 134.439 1502.01 131.021Z" fill="#DADCE9"/>
<path d="M1468 100.137C1469.41 102.486 1471.11 104.742 1473.06 106.881C1474.96 108.999 1477 111.018 1479.17 113.006C1481.34 114.978 1483.65 116.87 1486.09 118.674C1488.53 120.536 1491.19 122.237 1494.05 123.756C1492.65 121.424 1490.99 119.179 1489.07 117.045C1487.18 114.92 1485.15 112.865 1482.97 110.888C1480.8 108.933 1478.49 107.044 1476.05 105.219C1473.56 103.371 1470.87 101.671 1468 100.137Z" fill="#DADCE9"/>
<path d="M1591.66 112.256C1589 117.406 1586.92 122.701 1585.42 128.089C1583.88 133.432 1582.71 138.775 1581.85 144.183C1580.99 149.591 1580.45 154.966 1580.26 160.472C1580.03 165.913 1580.39 171.36 1581.35 176.76C1584.01 171.61 1586.1 166.316 1587.59 160.928C1589.13 155.585 1590.31 150.242 1591.17 144.834C1592.02 139.426 1592.57 134.051 1592.7 128.545C1592.95 123.104 1592.6 117.658 1591.66 112.256Z" fill="#DADCE9"/>
<path d="M1597.9 73.0647C1596.62 75.4447 1595.61 77.8962 1594.87 80.3947C1594.15 82.8706 1593.56 85.3466 1593.16 87.8551C1592.75 90.3636 1592.52 92.8721 1592.48 95.3806C1592.37 97.941 1592.59 100.503 1593.11 103.036C1594.39 100.656 1595.41 98.2049 1596.14 95.7064C1596.81 93.2394 1597.31 90.7494 1597.63 88.246C1598.04 85.7375 1598.27 83.229 1598.36 80.7205C1598.5 78.1639 1598.35 75.6034 1597.9 73.0647Z" fill="#DADCE9"/>
<path d="M1673.44 144.606C1666.5 146.893 1659.83 149.584 1653.5 152.653C1647.16 155.607 1641.06 158.789 1635.18 162.199C1629.3 165.608 1623.61 169.159 1618.12 172.852C1612.55 176.618 1607.4 180.703 1602.75 185.068C1609.68 182.769 1616.35 180.078 1622.69 177.021C1629.03 174.024 1635.06 170.843 1640.79 167.476C1646.52 164.11 1652.2 160.548 1657.84 156.791C1663.48 153.035 1668.7 148.96 1673.44 144.606Z" fill="#DADCE9"/>
<path d="M1716.33 120.075C1713.09 121.109 1709.97 122.329 1707.01 123.724C1703.99 125.092 1701.14 126.558 1698.46 128.122C1695.77 129.686 1693.15 131.347 1690.59 133.107C1688.03 134.872 1685.68 136.79 1683.58 138.84C1686.84 137.819 1689.97 136.599 1692.94 135.192C1698.81 132.459 1704.3 129.317 1709.31 125.809C1711.88 124.052 1714.23 122.133 1716.33 120.075Z" fill="#DADCE9"/>
<path d="M1699.54 209.143C1692.37 207.241 1685.01 205.738 1677.52 204.647C1670.14 203.539 1662.68 202.692 1655.22 202.073C1647.75 201.454 1640.2 201.063 1632.6 200.933C1624.97 200.757 1617.33 201.018 1609.76 201.715C1616.92 203.646 1624.28 205.15 1631.78 206.211C1639.16 207.318 1646.62 208.165 1654.08 208.784C1661.55 209.403 1669.1 209.794 1676.7 209.925C1684.33 210.101 1691.97 209.839 1699.54 209.143Z" fill="#DADCE9"/>
<path d="M1753.96 213.638C1750.64 212.713 1747.22 211.983 1743.74 211.456C1740.3 210.934 1736.86 210.543 1733.38 210.25C1729.9 209.957 1726.46 209.794 1722.93 209.729C1719.37 209.684 1715.82 209.847 1712.3 210.218C1715.61 211.148 1719.03 211.867 1722.52 212.368C1725.94 212.91 1729.4 213.323 1732.88 213.606C1736.35 213.901 1739.84 214.064 1743.33 214.094C1746.88 214.167 1750.44 214.015 1753.96 213.638Z" fill="#DADCE9"/>
<path d="M1654.58 268.077C1651.4 263.074 1647.68 258.259 1643.45 253.677C1639.29 249.138 1634.88 244.74 1630.2 240.483C1625.68 236.248 1620.57 232.143 1615.37 228.201C1610.14 224.193 1604.48 220.489 1598.45 217.125C1601.63 222.128 1605.35 226.943 1609.58 231.524C1613.74 236.063 1618.17 240.407 1622.87 244.555C1627.58 248.704 1632.51 252.798 1637.66 256.837C1642.89 260.893 1648.55 264.651 1654.58 268.077Z" fill="#DADCE9"/>
<path d="M1688.64 298.96C1687.23 296.601 1685.53 294.333 1683.58 292.184C1681.69 290.07 1679.65 288.025 1677.47 286.059C1675.31 284.08 1673 282.188 1670.55 280.391C1668.11 278.529 1665.45 276.828 1662.59 275.308C1664.04 277.634 1665.74 279.877 1667.65 282.02C1669.6 284.137 1671.64 286.189 1673.81 288.144C1675.98 290.127 1678.29 292.03 1680.73 293.845C1683.17 295.701 1685.82 297.412 1688.64 298.96Z" fill="#DADCE9"/>
<path d="M1564.97 286.841C1567.64 281.691 1569.72 276.397 1571.22 271.008C1572.76 265.666 1573.93 260.323 1574.79 254.915C1575.65 249.507 1576.19 244.132 1576.37 238.626C1576.61 233.184 1576.24 227.738 1575.29 222.337C1572.63 227.487 1570.54 232.781 1569.05 238.17C1567.51 243.513 1566.33 248.855 1565.47 254.263C1564.61 259.671 1564.07 265.047 1563.89 270.552C1563.68 275.994 1564.04 281.439 1564.97 286.841Z" fill="#DADCE9"/>
<path d="M1558.73 326.033C1560.02 323.653 1561.03 321.201 1561.76 318.703C1563.19 313.77 1564 308.754 1564.16 303.717C1564.24 301.157 1564.03 298.596 1563.53 296.061C1562.24 298.441 1561.23 300.893 1560.5 303.391C1559.07 308.324 1558.27 313.34 1558.1 318.377C1558.02 320.937 1558.23 323.498 1558.73 326.033Z" fill="#DADCE9"/>
<path d="M1483.19 254.491C1490.13 252.192 1496.8 249.501 1503.14 246.444C1509.47 243.491 1515.58 240.309 1521.46 236.899C1527.34 233.489 1533.03 229.938 1538.51 226.246C1544.08 222.473 1549.22 218.388 1553.89 214.029C1546.96 216.329 1540.29 219.019 1533.95 222.076C1527.61 225.03 1521.51 228.212 1515.63 231.621C1509.75 235.031 1504.06 238.593 1498.57 242.307C1493.01 246.069 1487.87 250.144 1483.19 254.491Z" fill="#DADCE9"/>
<path d="M1440.31 279.153C1443.55 278.119 1446.67 276.899 1449.63 275.504C1455.48 272.734 1460.97 269.594 1466.05 266.122C1468.62 264.357 1470.98 262.439 1473.11 260.388C1469.85 261.409 1466.71 262.63 1463.74 264.037C1457.87 266.769 1452.39 269.912 1447.37 273.419C1444.78 275.175 1442.42 277.094 1440.31 279.153Z" fill="#DADCE9"/>
<path d="M1457.09 189.955C1464.26 191.872 1471.63 193.375 1479.12 194.451C1486.5 195.558 1493.96 196.405 1501.42 197.057C1508.89 197.708 1516.44 198.067 1524.04 198.165C1531.6 198.347 1539.16 198.086 1546.66 197.383C1539.48 195.481 1532.12 193.978 1524.63 192.887C1517.25 191.779 1509.79 190.932 1502.33 190.346C1494.86 189.759 1487.31 189.336 1479.71 189.206C1472.16 189.027 1464.59 189.278 1457.09 189.955Z" fill="#DADCE9"/>
<path d="M1402.68 185.459C1405.99 186.388 1409.41 187.108 1412.9 187.609C1416.32 188.151 1419.78 188.564 1423.26 188.847C1426.73 189.141 1430.22 189.305 1433.71 189.335C1437.25 189.409 1440.79 189.256 1444.29 188.879C1440.99 187.949 1437.59 187.219 1434.12 186.697C1430.68 186.175 1427.24 185.784 1423.76 185.491C1420.29 185.196 1416.8 185.033 1413.31 185.002C1409.75 184.929 1406.2 185.082 1402.68 185.459Z" fill="#DADCE9"/>
<path d="M1502.06 264.753C1361.47 345.188 1299.77 480.582 1306.33 606.821C1306.78 619.527 1308.41 633.698 1309.86 646.338C1308.46 629.072 1307.24 610.926 1307.78 593.595C1308.91 471.949 1370.07 344.504 1502.06 264.721V264.753Z" fill="#DADCE9"/>
<path d="M1301.36 77.1694C1294.43 80.1755 1287.18 82.7896 1279.69 84.9881C1272.27 87.16 1264.73 89.1147 1257.07 90.8521C1249.47 92.5788 1241.74 94.1099 1233.91 95.2827C1226.01 96.5633 1217.98 97.3804 1209.9 97.7261C1216.83 94.72 1224.07 92.1059 1231.56 89.9074C1238.98 87.7355 1246.52 85.7809 1254.18 84.0434C1261.82 82.3167 1269.51 80.7856 1277.34 79.6128C1285.24 78.3345 1293.27 77.5174 1301.36 77.1694Z" fill="#E6E8F0"/>
<path d="M1356.77 64.5297C1353.56 65.9596 1350.21 67.2016 1346.73 68.2435C1343.33 69.2858 1339.85 70.1992 1336.32 70.9801C1332.78 71.7936 1329.19 72.4786 1325.56 73.0325C1321.88 73.596 1318.14 73.9446 1314.38 74.075C1317.56 72.6224 1320.91 71.3689 1324.38 70.3285C1327.8 69.2914 1331.29 68.378 1334.83 67.592C1338.36 66.7701 1341.96 66.0957 1345.6 65.5722C1349.27 64.9747 1353.01 64.6256 1356.77 64.5297Z" fill="#E6E8F0"/>
<path d="M1238.3 22.0806C1236.38 27.7482 1233.83 33.2939 1230.66 38.6627C1227.58 44.0055 1224.19 49.1854 1220.52 54.3001C1216.86 59.4148 1212.84 64.3667 1208.45 69.2208C1204.12 74.1332 1199.26 78.7951 1193.93 83.1641C1195.85 77.5002 1198.39 71.9553 1201.53 66.582C1204.54 61.2826 1207.93 56.081 1211.7 50.9772C1215.41 45.895 1219.39 40.9106 1223.74 36.0565C1228.08 31.133 1232.95 26.4603 1238.3 22.0806Z" fill="#E6E8F0"/>
<path d="M1265.22 -14.9598C1264.38 -12.3133 1263.24 -9.72018 1261.82 -7.20631C1260.42 -4.73039 1258.84 -2.31961 1257.3 0.0585775C1255.76 2.43677 1253.73 4.71721 1251.69 6.96509C1249.66 9.27327 1247.36 11.453 1244.82 13.4807C1245.65 10.8397 1246.8 8.25623 1248.25 5.75971C1249.57 3.2783 1251.08 0.852754 1252.78 -1.50517C1254.49 -3.88336 1256.35 -6.16381 1258.38 -8.41169C1260.41 -10.7273 1262.69 -12.9177 1265.22 -14.9598Z" fill="#E6E8F0"/>
<path d="M1139.83 15.2715C1144.01 20.2707 1147.64 25.4993 1150.69 30.9089C1153.7 36.2299 1156.41 41.6596 1158.83 47.1978C1161.22 52.7035 1163.35 58.2417 1164.98 63.8777C1166.75 69.5689 1167.89 75.354 1168.37 81.1766C1164.19 76.1887 1160.56 70.9709 1157.52 65.5718C1154.5 60.229 1151.79 54.7993 1149.37 49.2828C1146.96 43.7663 1144.91 38.2063 1143.22 32.6029C1141.47 26.8981 1140.33 21.1034 1139.83 15.2715Z" fill="#E6E8F0"/>
<path d="M1122.69 -24.506C1124.64 -22.2163 1126.3 -19.807 1127.66 -17.3063C1129.11 -14.8303 1130.38 -12.3218 1131.51 -9.78077C1132.64 -7.23969 1133.54 -4.66604 1134.31 -2.05981C1135.09 0.590366 1135.57 3.28119 1135.76 5.98694C1133.73 3.70244 1131.99 1.2931 1130.56 -1.21279C1129.12 -3.67406 1127.85 -6.18569 1126.76 -8.73828C1125.64 -11.2763 1124.71 -13.8532 1123.95 -16.4592C1123.21 -19.1105 1122.79 -21.8026 1122.69 -24.506Z" fill="#E6E8F0"/>
<path d="M1063.57 60.8807C1071.39 62.2497 1079.06 64.0578 1086.5 66.2887C1093.92 68.4605 1101.15 70.9039 1108.21 73.6187C1115.27 76.3335 1122.17 79.2221 1128.93 82.2844C1135.77 85.3953 1142.24 88.9037 1148.29 92.7745C1140.44 91.387 1132.75 89.5458 1125.31 87.2688C1117.89 85.097 1110.65 82.6536 1103.6 79.9388C1096.54 77.2674 1089.62 74.4006 1082.88 71.2731C1076.07 68.1829 1069.61 64.7079 1063.57 60.8807Z" fill="#E6E8F0"/>
<path d="M1012.18 41.3341C1015.85 41.9326 1019.44 42.7611 1022.9 43.81C1026.34 44.8199 1029.69 45.9276 1032.99 47.0678C1036.29 48.208 1039.46 49.6415 1042.58 51.1075C1045.77 52.5814 1048.8 54.2373 1051.62 56.0593C1047.96 55.4717 1044.37 54.6541 1040.9 53.616C1037.47 52.6061 1034.07 51.4658 1030.82 50.3582C1027.56 49.2505 1024.35 47.7845 1021.23 46.3185C1018.02 44.845 1015 43.1775 1012.18 41.3341Z" fill="#E6E8F0"/>
<path d="M1054.25 131.738C1061.19 128.721 1068.45 126.096 1075.96 123.887C1083.33 121.672 1090.84 119.749 1098.58 118.023C1106.31 116.296 1113.87 114.765 1121.74 113.592C1129.62 112.312 1137.64 111.494 1145.71 111.149C1138.79 114.174 1131.55 116.789 1124.04 118.968C1116.68 121.139 1109.15 123.105 1101.43 124.864C1093.83 126.558 1086.09 128.122 1078.27 129.262C1070.36 130.538 1062.33 131.366 1054.25 131.738Z" fill="#E6E8F0"/>
<path d="M998.883 144.215C1002.06 142.763 1005.4 141.509 1008.88 140.469C1012.3 139.432 1015.78 138.519 1019.33 137.732C1022.85 136.915 1026.42 136.24 1030.05 135.713C1033.73 135.117 1037.49 134.768 1041.27 134.67C1038.07 136.113 1034.71 137.355 1031.22 138.384C1027.83 139.426 1024.35 140.34 1020.82 141.121C1017.29 141.935 1013.69 142.609 1010.06 143.14C1006.38 143.731 1002.64 144.09 998.883 144.215Z" fill="#E6E8F0"/>
<path d="M1117.3 186.632C1119.24 180.968 1121.8 175.424 1124.95 170.049C1128.02 164.707 1131.42 159.527 1135.12 154.412C1138.83 149.297 1142.81 144.345 1147.16 139.524C1151.48 134.587 1156.35 129.913 1161.72 125.548C1159.8 131.216 1157.25 136.761 1154.08 142.13C1151.05 147.44 1147.61 152.653 1143.9 157.735C1140.19 162.817 1136.26 167.802 1131.73 172.656C1127.45 177.583 1122.62 182.256 1117.3 186.632Z" fill="#E6E8F0"/>
<path d="M1090.39 223.77C1091.23 221.12 1092.38 218.526 1093.83 216.017C1095.23 213.541 1096.77 211.13 1098.35 208.752C1099.93 206.374 1101.92 204.093 1103.96 201.845C1106.01 199.537 1108.32 197.357 1110.88 195.33C1110.03 197.967 1108.88 200.549 1107.44 203.051C1106.11 205.526 1104.6 207.951 1102.92 210.316C1101.2 212.694 1099.3 214.974 1097.26 217.222C1095.25 219.546 1092.94 221.738 1090.39 223.77Z" fill="#E6E8F0"/>
<path d="M1215.82 193.343C1211.63 188.359 1208 183.14 1204.96 177.738C1201.95 172.396 1199.22 166.966 1196.78 161.449C1194.38 155.944 1192.25 150.406 1190.63 144.77C1188.87 139.075 1187.74 133.292 1187.23 127.471C1191.42 132.455 1195.06 137.673 1198.09 143.076C1201.11 148.418 1203.83 153.848 1206.28 159.364C1208.63 164.838 1210.8 170.408 1212.38 176.044C1214.15 181.738 1215.3 187.521 1215.82 193.343Z" fill="#E6E8F0"/>
<path d="M1233.15 233.251C1231.15 230.944 1229.41 228.525 1227.94 226.018C1226.5 223.57 1225.23 221.069 1224.14 218.525C1223.01 215.98 1222.08 213.391 1221.34 210.772C1220.51 208.128 1220.03 205.434 1219.89 202.725C1221.9 205.01 1223.63 207.419 1225.05 209.925C1226.5 212.401 1227.76 214.909 1228.89 217.45C1230.02 219.991 1230.93 222.565 1231.7 225.171C1232.48 227.832 1232.96 230.534 1233.15 233.251Z" fill="#E6E8F0"/>
<path d="M1292.04 147.929C1284.17 146.495 1276.48 144.622 1269.02 142.326C1261.66 140.154 1254.43 137.71 1247.35 134.996C1240.25 132.357 1233.37 129.457 1226.63 126.33C1219.78 123.219 1213.29 119.711 1207.23 115.84C1215.09 117.237 1222.79 119.078 1230.25 121.345C1237.67 123.561 1244.86 126.004 1251.96 128.676C1259.06 131.347 1265.89 134.214 1272.63 137.341C1279.48 140.491 1285.97 144.032 1292.04 147.929Z" fill="#E6E8F0"/>
<path d="M1343.47 167.313C1339.79 166.71 1336.19 165.881 1332.7 164.837C1329.28 163.883 1325.92 162.796 1322.66 161.579C1319.37 160.354 1316.17 159.006 1313.07 157.54C1309.87 156.073 1306.85 154.417 1304.03 152.588C1307.7 153.18 1311.31 153.998 1314.79 155.031C1318.23 156.041 1321.58 157.181 1324.83 158.289C1328.13 159.514 1331.33 160.863 1334.42 162.329C1337.63 163.806 1340.65 165.473 1343.47 167.313Z" fill="#E6E8F0"/>
<path d="M1237.58 68.6671C1234.7 71.4914 1231.53 74.1493 1228.08 76.6161C1224.69 79.0595 1221.11 81.4051 1217.45 83.6204C1213.79 85.8357 1209.99 87.9207 1206.01 89.9079C1202.03 91.9284 1197.84 93.7151 1193.48 95.2507C1196.36 92.4258 1199.56 89.7681 1203.02 87.3017C1206.41 84.8583 1209.94 82.5453 1213.6 80.33C1217.27 78.1147 1221.11 75.9971 1225.05 74.0425C1229.02 72.0184 1233.21 70.2211 1237.58 68.6671Z" fill="#E6E8F0"/>
<path d="M1264.31 52.5741C1262.95 53.9025 1261.44 55.145 1259.79 56.288C1258.22 57.4329 1256.58 58.5202 1254.86 59.5458C1253.18 60.5942 1251.41 61.5627 1249.56 62.4452C1247.71 63.3859 1245.74 64.2037 1243.68 64.8886C1245.03 63.5529 1246.54 62.3096 1248.21 61.1746C1249.74 60.0135 1251.37 58.9253 1253.09 57.9169C1254.8 56.8754 1256.58 55.8968 1258.43 54.9849C1260.3 54.0723 1262.27 53.2663 1264.31 52.5741Z" fill="#E6E8F0"/>
<path d="M1185.06 48.6967C1185.79 52.1574 1186.14 55.6541 1186.1 59.1542C1186.1 62.6074 1186.1 66.0607 1185.47 69.5139C1184.84 72.9672 1184.43 76.3553 1183.57 79.776C1182.73 83.2266 1181.52 86.6249 1179.95 89.9403C1179.23 86.4794 1178.88 82.9828 1178.91 79.4828C1178.87 76.0239 1179.08 72.566 1179.54 69.123C1179.97 65.6697 1180.6 62.2491 1181.44 58.861C1182.28 55.4095 1183.49 52.0108 1185.06 48.6967Z" fill="#E6E8F0"/>
<path d="M1188.14 23.6768C1188.51 25.2811 1188.71 26.9042 1188.73 28.5309C1188.73 30.1272 1188.73 31.7886 1188.45 33.3524C1188.18 34.9161 1187.96 36.6102 1187.55 38.1088C1187.14 39.704 1186.55 41.2727 1185.79 42.8C1185.39 41.1979 1185.19 39.5733 1185.2 37.9459C1185.18 36.3473 1185.27 34.7489 1185.47 33.1569C1185.66 31.5613 1185.96 29.9737 1186.37 28.4005C1186.79 26.7947 1187.38 25.2151 1188.14 23.6768Z" fill="#E6E8F0"/>
<path d="M1128.29 61.3046C1132.2 63.3853 1135.88 65.6837 1139.29 68.1785C1142.72 70.6218 1145.94 73.1629 1149.01 75.8017C1152.09 78.4406 1155.03 81.1771 1157.74 84.044C1160.55 86.9004 1163.03 89.9186 1165.16 93.068C1161.25 90.9972 1157.58 88.7098 1154.17 86.2267C1150.73 83.7507 1147.52 81.2097 1144.44 78.5709C1141.37 75.9321 1138.43 73.1629 1135.71 70.3287C1132.9 67.4722 1130.42 64.454 1128.29 61.3046Z" fill="#E6E8F0"/>
<path d="M1105.9 42.0514C1107.75 43.0297 1109.47 44.1196 1111.06 45.3092C1112.66 46.429 1114.17 47.6146 1115.58 48.8602C1117.03 50.0981 1118.39 51.3687 1119.66 52.6718C1120.92 54.0195 1122.04 55.4354 1123 56.9069C1121.16 55.9286 1119.43 54.8387 1117.85 53.6491C1116.26 52.521 1114.75 51.3358 1113.32 50.0981C1111.88 48.8859 1110.53 47.6131 1109.3 46.2865C1108 44.947 1106.87 43.5302 1105.9 42.0514Z" fill="#E6E8F0"/>
<path d="M1100.52 99.1604C1105.32 98.6111 1110.18 98.3496 1115.04 98.3785C1119.84 98.3785 1124.63 98.3785 1129.43 98.8346C1134.22 99.2907 1138.92 99.5839 1143.67 100.203C1148.47 100.803 1153.19 101.674 1157.79 102.809C1152.98 103.342 1148.13 103.604 1143.27 103.591C1138.47 103.591 1133.68 103.591 1128.88 103.135C1124.09 102.679 1119.34 102.353 1114.63 101.734C1109.84 101.145 1105.12 100.285 1100.52 99.1604Z" fill="#E6E8F0"/>
<path d="M1065.78 96.9123C1068.01 96.6378 1070.26 96.507 1072.52 96.5214C1076.98 96.4976 1081.44 96.7813 1085.82 97.3684C1088.05 97.635 1090.23 98.0606 1092.33 98.6389C1090.11 98.9146 1087.85 99.0455 1085.59 99.0299C1083.37 99.0627 1081.15 98.9975 1078.95 98.8344C1076.73 98.6995 1074.53 98.482 1072.34 98.1829C1070.11 97.901 1067.91 97.4758 1065.78 96.9123Z" fill="#E6E8F0"/>
<path d="M1118.16 140.045C1121.05 137.22 1124.24 134.563 1127.71 132.096C1131.1 129.653 1134.63 127.307 1138.29 125.092C1141.95 122.877 1145.8 120.792 1149.73 118.804C1153.71 116.791 1157.9 115.004 1162.26 113.462C1159.39 116.286 1156.22 118.944 1152.77 121.411C1149.37 123.854 1145.8 126.2 1142.14 128.415C1138.47 130.63 1134.67 132.715 1130.69 134.702C1126.72 136.716 1122.53 138.502 1118.16 140.045Z" fill="#E6E8F0"/>
<path d="M1091.29 156.139C1092.64 154.804 1094.15 153.56 1095.82 152.425C1097.36 151.273 1098.99 150.185 1100.7 149.168C1102.41 148.137 1104.19 147.169 1106.04 146.268C1107.88 145.335 1109.84 144.517 1111.88 143.825C1110.51 145.157 1108.99 146.409 1107.35 147.571C1105.77 148.712 1104.14 149.787 1102.42 150.829C1100.7 151.872 1098.98 152.816 1097.13 153.729C1095.28 154.645 1093.33 155.451 1091.29 156.139Z" fill="#E6E8F0"/>
<path d="M1170.59 160.015C1169.85 156.555 1169.48 153.059 1169.5 149.558C1169.5 146.104 1169.5 142.651 1170.14 139.231C1170.77 135.81 1171.18 132.357 1172.04 128.936C1172.87 125.485 1174.08 122.087 1175.65 118.772C1176.47 122.249 1176.91 125.767 1176.97 129.294C1176.97 132.78 1176.74 136.233 1176.33 139.654C1175.92 143.075 1175.25 146.528 1174.39 149.916C1173.51 153.353 1172.24 156.731 1170.59 160.015Z" fill="#E6E8F0"/>
<path d="M1167.51 185.035C1167.12 183.433 1166.92 181.808 1166.92 180.181C1166.88 178.582 1166.97 176.983 1167.2 175.392C1167.39 173.786 1167.69 172.187 1168.1 170.603C1168.5 169.005 1169.09 167.435 1169.86 165.912C1170.24 167.516 1170.43 169.139 1170.45 170.766C1170.45 172.351 1170.36 173.948 1170.18 175.555C1169.95 177.151 1169.68 178.812 1169.23 180.344C1168.85 181.941 1168.27 183.51 1167.51 185.035Z" fill="#E6E8F0"/>
<path d="M1227.36 147.408C1223.43 145.339 1219.74 143.051 1216.32 140.567C1212.93 138.123 1209.71 135.55 1206.59 132.911C1203.47 130.272 1200.62 127.535 1197.86 124.669C1195.1 121.802 1192.65 118.785 1190.54 115.645C1194.46 117.725 1198.15 120.023 1201.57 122.518C1204.96 124.962 1208.22 127.503 1211.3 130.142C1214.37 132.781 1217.27 135.55 1220.03 138.384C1222.79 141.25 1225.24 144.267 1227.36 147.408Z" fill="#E6E8F0"/>
<path d="M1249.75 166.662C1247.9 165.675 1246.16 164.586 1244.54 163.404C1242.96 162.264 1241.47 161.091 1240.02 159.853C1238.57 158.615 1237.26 157.344 1235.99 156.041C1234.7 154.702 1233.56 153.285 1232.6 151.806C1234.45 152.793 1236.19 153.882 1237.8 155.064C1239.39 156.204 1240.88 157.377 1242.33 158.615C1243.77 159.853 1245.09 161.123 1246.35 162.426C1247.63 163.773 1248.77 165.189 1249.75 166.662Z" fill="#E6E8F0"/>
<path d="M1255.13 109.748C1250.32 110.27 1245.47 110.521 1240.61 110.497C1235.77 110.497 1230.97 110.334 1226.22 110.041C1221.48 109.748 1216.68 109.292 1211.93 108.673C1207.14 108.065 1202.42 107.194 1197.82 106.066C1202.64 105.532 1207.51 105.271 1212.38 105.285C1217.18 105.285 1221.97 105.285 1226.72 105.773C1231.47 106.262 1236.27 106.523 1241.02 107.142C1245.81 107.745 1250.53 108.617 1255.13 109.748Z" fill="#E6E8F0"/>
<path d="M1290.05 111.801C1287.82 112.076 1285.57 112.207 1283.31 112.192C1281.09 112.273 1278.87 112.273 1276.66 112.192C1274.44 112.046 1272.24 111.817 1270.06 111.507C1267.82 111.237 1265.63 110.822 1263.5 110.269C1265.72 109.968 1267.98 109.826 1270.24 109.846C1272.47 109.813 1274.71 109.878 1276.93 110.041C1279.15 110.178 1281.35 110.396 1283.54 110.693C1285.75 110.922 1287.93 111.293 1290.05 111.801Z" fill="#E6E8F0"/>
<path opacity="0.3" d="M1101.92 134.67C980.563 205.527 877.794 305.053 863.998 420.085L864.857 409.465C865.536 402.493 867.074 395.065 868.385 388.191C892.766 285.441 988.253 196.373 1101.79 134.735L1101.92 134.67Z" fill="#E6E8F0"/>
</g>
</g>
</g>
<defs>
<clipPath id="clip0_3_735">
<rect width="1920" height="650" fill="white"/>
</clipPath>
<clipPath id="clip1_3_735">
<rect width="1920" height="786" fill="white" transform="translate(0 -65)"/>
</clipPath>
</defs>
</svg>
