<svg width="20" height="19" viewBox="0 0 20 19" fill="none" xmlns="http://www.w3.org/2000/svg">
<path d="M10.4135 15.8812L15.1419 18.8769C15.7463 19.2598 16.4967 18.6903 16.3173 17.9848L14.9512 12.6108C14.9127 12.4611 14.9173 12.3036 14.9643 12.1564C15.0114 12.0092 15.0991 11.8783 15.2172 11.7787L19.4573 8.24959C20.0144 7.78589 19.7269 6.86127 19.0111 6.81482L13.4738 6.45545C13.3247 6.44479 13.1816 6.39199 13.0613 6.30318C12.941 6.21438 12.8484 6.09322 12.7943 5.95383L10.7292 0.753237C10.673 0.605285 10.5732 0.47791 10.443 0.388028C10.3127 0.298145 10.1582 0.250008 10 0.250008C9.84176 0.250008 9.68726 0.298145 9.55702 0.388028C9.42678 0.47791 9.32697 0.605285 9.27083 0.753237L7.20568 5.95383C7.15157 6.09322 7.05897 6.21438 6.93868 6.30318C6.81838 6.39199 6.67533 6.44479 6.52618 6.45545L0.98894 6.81482C0.273153 6.86127 -0.0144031 7.78589 0.542723 8.24959L4.78278 11.7787C4.90095 11.8783 4.9886 12.0092 5.03566 12.1564C5.08272 12.3036 5.08727 12.4611 5.0488 12.6108L3.78188 17.5945C3.56667 18.4412 4.46715 19.1246 5.19243 18.6651L9.58647 15.8812C9.71005 15.8025 9.85351 15.7607 10 15.7607C10.1465 15.7607 10.29 15.8025 10.4135 15.8812Z" fill="#FFC107"/>
</svg>
