<svg width="21" height="22" viewBox="0 0 21 22" fill="none" xmlns="http://www.w3.org/2000/svg">
<g clip-path="url(#clip0_388_2018)">
<path d="M10.2443 0C16.0444 0 20.4885 4.99665 20.4885 10.7846C20.4885 11.7195 20.372 12.6334 20.1533 13.5092C19.2549 12.6857 18.0809 12.1869 16.797 12.1869C15.3851 12.1869 14.106 12.7902 13.1804 13.7651C12.2546 14.74 11.6818 16.0868 11.6818 17.5739C11.6818 18.9593 12.1792 20.2232 12.9959 21.1778C12.125 21.432 11.2033 21.5693 10.2443 21.5693C4.44344 21.5693 0 16.5741 0 10.7846C0 5.02877 4.41071 0 10.2443 0Z" fill="#D9E9F0"/>
<path d="M13.0105 21.195C12.2588 21.4074 11.4858 21.5323 10.7064 21.5673C10.2635 21.5735 9.82055 21.5647 9.37822 21.541C8.24947 21.445 7.16846 21.1631 6.16328 20.7245C4.8585 20.1551 3.68351 19.32 2.70009 18.2834C2.45621 18.0267 2.2246 17.7583 2.00607 17.479C2.5714 16.1438 3.9049 15.3499 5.24903 15.1671C6.53793 14.9919 7.61051 14.8141 8.06418 13.23C8.18162 13.3346 8.30488 13.4401 8.43062 13.5537C9.60468 14.615 10.9276 14.6611 12.0588 13.552C12.1517 13.4606 12.2426 13.3746 12.3296 13.2908C12.4746 13.6189 12.669 13.8793 12.897 14.0889C12.1392 15.0284 11.6818 16.2451 11.6818 17.5739C11.6818 18.9676 12.1851 20.2384 13.0105 21.195Z" fill="#194794"/>
<path d="M12.3301 13.2911C12.4751 13.6191 12.6695 13.8794 12.8974 14.089C12.5656 14.5008 12.2952 14.96 12.0949 15.4519C10.3885 15.9836 8.46665 15.6945 6.93555 14.7455C7.55752 14.4049 7.86899 13.9117 8.06408 13.2296C8.18143 13.3342 8.30509 13.4397 8.43109 13.5537C9.60524 14.615 10.9281 14.6611 12.0593 13.552C12.1522 13.4606 12.2432 13.3745 12.3301 13.2911Z" fill="#D2A75F"/>
<path d="M10.3558 15.7157C9.16181 15.7211 7.96089 15.3808 6.93555 14.7455C7.55518 14.4063 7.87459 13.9054 8.06439 13.2296C8.18209 13.3342 8.30509 13.4397 8.43109 13.5537C9.04772 14.1111 9.70609 14.3885 10.3558 14.3656V15.7157Z" fill="#DBB26F"/>
<path fill-rule="evenodd" clip-rule="evenodd" d="M6.20858 9.66173C6.36352 9.21089 6.72379 9.35586 7.23714 9.54636C7.03208 8.60098 7.27407 7.86261 8.00205 7.35063C9.55508 6.25813 10.257 7.19328 11.9403 5.81513C12.9074 6.31029 13.7726 7.14743 13.3317 9.76283C13.7984 9.40327 14.4713 9.43678 14.2597 10.2333L13.9705 11.066C13.9014 11.2652 13.8551 11.3375 13.6074 11.324C13.4979 11.3181 13.3879 11.2752 13.2781 11.2015C13.3795 12.4302 12.7928 12.8311 12.0586 13.5516C10.9277 14.6612 9.60467 14.6154 8.43088 13.5536C7.7433 12.9318 7.13267 12.5542 7.10223 11.2759C6.9239 11.3314 6.75542 11.3416 6.60816 11.2565C6.31486 11.0868 6.20801 10.5928 6.19195 10.2764C6.18555 10.1492 6.19089 9.79132 6.20858 9.66173Z" fill="#E9BE79"/>
<path fill-rule="evenodd" clip-rule="evenodd" d="M6.20942 9.66183C6.36454 9.2109 6.72454 9.35605 7.23798 9.54637L7.23339 9.5239L7.23798 9.52646C7.50556 6.67014 8.90042 7.09963 10.356 6.73486V14.3656C9.70645 14.3887 9.04839 14.1116 8.43163 13.5537C7.7441 12.9319 7.13342 12.5544 7.10316 11.2761C6.92492 11.3314 6.75626 11.3416 6.60913 11.2566C6.18189 11.0093 6.14744 10.1153 6.20942 9.66183Z" fill="#F2CD8C"/>
<path fill-rule="evenodd" clip-rule="evenodd" d="M5.32031 5.62228C7.58522 2.77668 10.1958 1.22898 12.156 3.76041C14.5582 3.88865 15.3915 7.87377 13.3767 9.42851C13.5381 7.264 12.9079 6.29319 11.9334 5.80538C10.0787 7.86161 7.60256 5.61856 7.23639 9.52625L6.3475 9.05558C6.25922 7.93481 6.51744 5.99041 5.32031 5.62228Z" fill="#462917"/>
<path fill-rule="evenodd" clip-rule="evenodd" d="M16.7966 13.1478C19.1185 13.1478 20.9994 15.1299 20.9994 17.5739C20.9994 20.0192 19.1173 22 16.7966 22C14.4747 22 12.5938 20.0179 12.5938 17.5739C12.5938 15.1286 14.4759 13.1478 16.7966 13.1478Z" fill="#2E2D2C"/>
<path fill-rule="evenodd" clip-rule="evenodd" d="M16.7966 13.1479C17.6994 13.1479 18.5353 13.4477 19.22 13.9575C20.5654 16.9248 18.6789 21.2081 15.4333 21.7619C13.781 21.1655 12.5938 19.5156 12.5938 17.574C12.5938 15.1287 14.4759 13.1479 16.7966 13.1479Z" fill="#434241"/>
<path d="M16.0307 15.6891L16.0302 15.5868C16.0335 15.3715 16.0742 15.2304 16.3719 15.2348L17.1343 15.2445C17.2926 15.2439 17.3983 15.2753 17.4707 15.3538C17.5423 15.4314 17.5666 15.5394 17.5649 15.6931L17.5654 16.7707C17.9391 16.7707 18.3129 16.7722 18.6866 16.7703C18.8946 16.7735 19.031 16.8153 19.0266 17.1256L19.0174 17.9282C19.0187 18.2424 18.9013 18.3814 18.5872 18.3777L17.5654 18.3782L17.565 19.4654C17.5654 19.6135 17.5406 19.7183 17.4707 19.7942C17.3983 19.8726 17.2926 19.9041 17.1343 19.9034L16.3719 19.9132C16.0742 19.9177 16.0335 19.7764 16.0302 19.5611C16.0316 19.1668 16.0306 18.7725 16.0304 18.3782L14.9977 18.3778C14.6884 18.3787 14.5762 18.2355 14.5776 17.9282L14.5685 17.1256C14.5641 16.8148 14.7009 16.7734 14.9089 16.7703C15.2827 16.7722 15.6565 16.7708 16.0304 16.7707L16.0307 15.6891Z" fill="white"/>
</g>
<defs>
<clipPath id="clip0_388_2018">
<rect width="21" height="22" fill="white"/>
</clipPath>
</defs>
</svg>
